<svg width="1541" height="194" viewBox="0 0 1541 194" fill="none" xmlns="http://www.w3.org/2000/svg">
<g filter="url(#filter0_d_252783_94)">
<circle cx="22.5" cy="157.5" r="20.5" fill="#D6D6D6"/>
<circle cx="20.5" cy="20.5" r="20.5" transform="matrix(-1 0 0 1 1535 137)" fill="#D6D6D6"/>
<circle cx="169.5" cy="20.5" r="20.5" fill="#27692E"/>
<circle cx="20.5" cy="20.5" r="20.5" transform="matrix(-1 0 0 1 1388 0)" fill="#27692E"/>
<circle cx="231.5" cy="116.5" r="20.5" fill="#930000"/>
<circle cx="20.5" cy="20.5" r="20.5" transform="matrix(-1 0 0 1 1326 96)" fill="#930000"/>
<circle cx="451.5" cy="20.5" r="20.5" fill="#070572"/>
<circle cx="20.5" cy="20.5" r="20.5" transform="matrix(-1 0 0 1 1106 0)" fill="#070572"/>
<circle cx="567.5" cy="136.5" r="20.5" fill="#FFFEF4"/>
<circle cx="777.5" cy="21.5" r="20.5" fill="#FFD84E"/>
<circle cx="20.5" cy="20.5" r="20.5" transform="matrix(-1 0 0 1 990 116)" fill="#FFFEF4"/>
</g>
<defs>
<filter id="filter0_d_252783_94" x="0" y="0" width="1541" height="194" filterUnits="userSpaceOnUse" color-interpolation-filters="sRGB">
<feFlood flood-opacity="0" result="BackgroundImageFix"/>
<feColorMatrix in="SourceAlpha" type="matrix" values="0 0 0 0 0 0 0 0 0 0 0 0 0 0 0 0 0 0 127 0" result="hardAlpha"/>
<feOffset dx="2" dy="12"/>
<feGaussianBlur stdDeviation="2"/>
<feComposite in2="hardAlpha" operator="out"/>
<feColorMatrix type="matrix" values="0 0 0 0 0 0 0 0 0 0 0 0 0 0 0 0 0 0 0.25 0"/>
<feBlend mode="normal" in2="BackgroundImageFix" result="effect1_dropShadow_252783_94"/>
<feBlend mode="normal" in="SourceGraphic" in2="effect1_dropShadow_252783_94" result="shape"/>
</filter>
</defs>
</svg>
