<svg width="732" height="143" viewBox="0 0 732 143" fill="none" xmlns="http://www.w3.org/2000/svg">
<path d="M85.6406 68.7344C86.0156 68.5469 86.3594 68.4531 86.6719 68.4531C87.0156 68.4531 87.2812 68.5781 87.4688 68.8281C87.6562 69.0469 87.75 69.3281 87.75 69.6719C87.75 70.1094 87.5781 70.6094 87.2344 71.1719C86.8906 71.7031 86.3594 72.1875 85.6406 72.625C83.8281 73.875 82 75.0625 80.1562 76.1875C78.3125 77.2812 76.4531 78.3125 74.5781 79.2812C72.9844 80.125 71.2812 80.9531 69.4688 81.7656C67.6562 82.5469 65.7969 83.25 63.8906 83.875C61.9844 84.4688 60.0625 84.9531 58.125 85.3281C56.2188 85.7031 54.375 85.8906 52.5938 85.8906C51.125 85.8906 49.7344 85.75 48.4219 85.4688C46.7031 88.4375 44.7656 91.1719 42.6094 93.6719C40.4531 96.1719 38.1875 98.4219 35.8125 100.422C33.4375 102.422 30.9844 104.172 28.4531 105.672C25.9531 107.203 23.4688 108.469 21 109.469C18.5312 110.5 16.1406 111.266 13.8281 111.766C11.5156 112.297 9.35938 112.562 7.35938 112.562C6.32812 112.562 5.46875 112.484 4.78125 112.328C4.125 112.203 3.59375 112.016 3.1875 111.766C2.78125 111.547 2.48438 111.297 2.29688 111.016C2.14062 110.734 2.0625 110.453 2.0625 110.172C2.0625 109.672 2.23438 109.234 2.57812 108.859C2.92188 108.516 3.28125 108.344 3.65625 108.344C5.53125 108.344 7.51562 108 9.60938 107.312C11.7344 106.625 13.875 105.656 16.0312 104.406C18.1875 103.156 20.3281 101.656 22.4531 99.9062C24.5781 98.1875 26.5938 96.2656 28.5 94.1406C30.4375 92.0469 32.2188 89.7969 33.8438 87.3906C35.4688 84.9844 36.875 82.5 38.0625 79.9375C37.4062 79.25 37.0781 78.5781 37.0781 77.9219C37.0781 77.3906 37.3125 76.8438 37.7812 76.2812C38.25 75.6875 39.0312 75.0781 40.125 74.4531L40.3594 74.3125C40.8281 73.1562 41.4375 71.7031 42.1875 69.9531C42.9688 68.1719 43.8281 66.2031 44.7656 64.0469C45.7031 61.8906 46.7188 59.6094 47.8125 57.2031C48.9062 54.7656 50.0156 52.3281 51.1406 49.8906C49.5156 49.9844 47.875 50.0938 46.2188 50.2188C44.5625 50.3125 42.875 50.4219 41.1562 50.5469C40.4062 53.7031 39.2812 56.4375 37.7812 58.75C36.3125 61.0312 34.6094 62.9219 32.6719 64.4219C30.7656 65.8906 28.7031 66.9844 26.4844 67.7031C24.2656 68.4219 22.0312 68.7812 19.7812 68.7812C17.25 68.7812 14.7969 68.3594 12.4219 67.5156C10.0469 66.6406 7.9375 65.375 6.09375 63.7188C4.25 62.0625 2.76562 60.0312 1.64062 57.625C0.546875 55.2188 0 52.4844 0 49.4219C0 43.5469 0.796875 38.3906 2.39062 33.9531C4.01562 29.4844 6.26562 25.6406 9.14062 22.4219C12.0156 19.2031 15.4375 16.5312 19.4062 14.4062C23.375 12.2813 27.7188 10.5938 32.4375 9.34375C37.1562 8.0625 42.1719 7.17188 47.4844 6.67188C52.7969 6.14063 58.2188 5.875 63.75 5.875C66.4062 5.875 69.0156 5.92188 71.5781 6.01562C74.1406 6.10938 76.75 6.23438 79.4062 6.39062C80 6.20312 80.5938 6.10938 81.1875 6.10938C81.8438 6.10938 82.4219 6.17187 82.9219 6.29688C83.4531 6.42188 83.8906 6.57812 84.2344 6.76562C89.7031 7.20312 95.0625 7.73438 100.312 8.35938C105.562 8.95313 110.516 9.53125 115.172 10.0938C119.828 10.625 124.094 11.0937 127.969 11.5C131.875 11.875 135.219 12.0625 138 12.0625C141.469 12.0625 144.734 11.9063 147.797 11.5938C150.891 11.2812 153.781 10.875 156.469 10.375C159.188 9.84375 161.688 9.25 163.969 8.59375C166.25 7.90625 168.328 7.20312 170.203 6.48438C172.391 5.67188 174.422 4.8125 176.297 3.90625C178.172 3 179.922 2 181.547 0.90625L185.672 4C183.172 6.75 180.422 9.04688 177.422 10.8906C174.453 12.7344 171.281 14.2188 167.906 15.3438C164.531 16.4688 160.984 17.2656 157.266 17.7344C153.547 18.2031 149.719 18.4375 145.781 18.4375C140.781 18.4375 135.656 18.1406 130.406 17.5469C125.156 16.9219 119.859 16.1875 114.516 15.3438C109.203 14.4687 103.922 13.5469 98.6719 12.5781C93.4219 11.6094 88.2969 10.7656 83.2969 10.0469C82.2656 11.0469 81.0156 12.2969 79.5469 13.7969C78.0781 15.2969 76.5938 16.9062 75.0938 18.625C73.625 20.3125 72.25 22.0469 70.9688 23.8281C69.7188 25.6094 68.7656 27.2813 68.1094 28.8438C67.0469 31.375 66.0156 34.1094 65.0156 37.0469C64.0469 39.9531 63.0938 43.0156 62.1562 46.2344C66.75 46.2344 71.4062 46.2188 76.125 46.1875C80.8438 46.1562 85.4219 46.125 89.8594 46.0938C94.3281 46.0625 98.5469 46.0312 102.516 46C106.516 45.9375 110.078 45.8906 113.203 45.8594C116.359 45.8281 118.984 45.7969 121.078 45.7656C123.172 45.7344 124.547 45.7188 125.203 45.7188C126.516 45.7188 127.562 45.8281 128.344 46.0469C129.125 46.2656 129.688 46.4844 130.031 46.7031C130.219 47.5156 130.312 48.1094 130.312 48.4844C130.312 48.9219 130.219 49.2188 130.031 49.375C129.844 49.5 129.578 49.5625 129.234 49.5625C128.828 49.5625 128.312 49.5156 127.688 49.4219C127.094 49.3281 126.391 49.2812 125.578 49.2812C121.453 49.2812 117.516 49.2812 113.766 49.2812C110.047 49.25 106.469 49.2188 103.031 49.1875C99.625 49.1562 96.3438 49.1406 93.1875 49.1406C90.0312 49.1094 86.9531 49.0938 83.9531 49.0938C79.9844 49.0938 76.1406 49.125 72.4219 49.1875C68.7344 49.2188 65 49.2969 61.2188 49.4219C60.4062 52.1406 59.5938 54.875 58.7812 57.625C57.9688 60.3438 57.1562 62.9844 56.3438 65.5469C55.5625 68.0781 54.7656 70.5 53.9531 72.8125C53.1719 75.125 52.375 77.2344 51.5625 79.1406C52.375 79.7969 53.2812 80.2656 54.2812 80.5469C55.2812 80.8281 56.3594 80.9688 57.5156 80.9688C58.8906 80.9688 60.3438 80.7969 61.875 80.4531C63.4375 80.0781 65 79.6094 66.5625 79.0469C68.1562 78.4844 69.7344 77.8438 71.2969 77.125C72.8594 76.375 74.3438 75.625 75.75 74.875C77.4375 73.9688 79.0781 73.0156 80.6719 72.0156C82.2969 70.9844 83.9531 69.8906 85.6406 68.7344ZM62.1562 25.8906C62.3125 25.6094 62.5938 25.125 63 24.4375C63.4062 23.7188 63.9062 22.875 64.5 21.9062C65.125 20.9375 65.8281 19.8906 66.6094 18.7656C67.3906 17.6094 68.2344 16.4531 69.1406 15.2969C70.0469 14.1094 70.9844 12.9844 71.9531 11.9219C72.9531 10.8281 73.9688 9.85938 75 9.01562C72.9375 8.79687 70.9062 8.625 68.9062 8.5C66.9375 8.375 65 8.3125 63.0938 8.3125C58.0625 8.3125 53.1719 8.5625 48.4219 9.0625C43.6719 9.5625 39.2031 10.4219 35.0156 11.6406C30.8281 12.8281 26.9688 14.4219 23.4375 16.4219C19.9375 18.4219 16.9219 20.9375 14.3906 23.9688C11.8594 26.9688 9.89062 30.5469 8.48438 34.7031C7.07812 38.8281 6.375 43.6094 6.375 49.0469C6.375 52.0469 6.6875 54.6094 7.3125 56.7344C7.96875 58.8594 8.84375 60.5938 9.9375 61.9375C11.0625 63.25 12.3594 64.2188 13.8281 64.8438C15.2969 65.4375 16.875 65.7344 18.5625 65.7344C20.5625 65.7344 22.625 65.3438 24.75 64.5625C26.9062 63.7812 28.9688 62.7188 30.9375 61.375C32.9062 60 34.7031 58.4062 36.3281 56.5938C37.9844 54.75 39.3125 52.7656 40.3125 50.6406L38.2969 50.7812C38.1094 50.8125 37.9219 50.8281 37.7344 50.8281C37.5781 50.8281 37.4219 50.8281 37.2656 50.8281C35.5781 50.8281 34.3125 50.5312 33.4688 49.9375C32.6562 49.3125 32.25 48.6094 32.25 47.8281C32.25 46.8281 32.875 45.9844 34.125 45.2969C35.2812 44.6719 37.1406 44.3594 39.7031 44.3594C39.8281 44.3594 39.9531 44.3594 40.0781 44.3594C41.1094 44.3594 41.9688 44.4062 42.6562 44.5C43.375 44.5938 44 44.7188 44.5312 44.875C45.0938 45 45.6094 45.1406 46.0781 45.2969C46.5469 45.4531 47.0781 45.6094 47.6719 45.7656C48.2656 45.8906 48.9688 46 49.7812 46.0938C50.5938 46.1875 51.6094 46.2344 52.8281 46.2344C54.0469 43.5156 55.2188 40.9375 56.3438 38.5C57.4688 36.0312 58.4531 33.875 59.2969 32.0312C60.1719 30.1562 60.75 28.9375 61.0312 28.375L62.1562 25.8906ZM85.6875 72.625C85.4688 72.75 85.2656 72.8125 85.0781 72.8125C84.7656 72.8125 84.5312 72.6875 84.375 72.4375C84.2188 72.1562 84.1406 71.8125 84.1406 71.4062C84.1406 70.9688 84.25 70.5 84.4688 70C84.6875 69.5 85.0938 69.0781 85.6875 68.7344L103.031 58.5156C105.188 57.2656 107.484 56.1875 109.922 55.2812C112.359 54.375 114.828 53.6406 117.328 53.0781C119.859 52.4844 122.359 52.0625 124.828 51.8125C127.297 51.5312 129.625 51.3906 131.812 51.3906C133.062 51.3906 134.234 51.4844 135.328 51.6719C136.422 51.8281 137.359 52.0781 138.141 52.4219C138.953 52.7344 139.578 53.125 140.016 53.5938C140.484 54.0625 140.719 54.5938 140.719 55.1875C140.719 55.625 140.562 55.9375 140.25 56.125C139.938 56.3125 139.562 56.4531 139.125 56.5469C138.719 56.6094 138.281 56.6562 137.812 56.6875C137.375 56.7188 137.031 56.7969 136.781 56.9219C136.594 57.5156 136.297 58.4375 135.891 59.6875C135.484 60.9062 135.078 62.1719 134.672 63.4844C134.266 64.7656 133.891 65.9219 133.547 66.9531C133.234 67.9531 133.062 68.5312 133.031 68.6875C132.625 70 132.062 71.6719 131.344 73.7031C130.656 75.7031 129.891 78.3906 129.047 81.7656C129.078 81.7656 129.422 81.5938 130.078 81.25C130.766 80.875 131.641 80.3906 132.703 79.7969C133.797 79.2031 135.031 78.5156 136.406 77.7344C137.781 76.9531 139.203 76.1562 140.672 75.3438L151.875 68.7344C152.312 68.4844 152.688 68.3594 153 68.3594C153.344 68.3594 153.609 68.4844 153.797 68.7344C153.984 68.9531 154.078 69.2344 154.078 69.5781C154.078 70.0156 153.906 70.5312 153.562 71.125C153.219 71.6875 152.656 72.1875 151.875 72.625L126.938 87.25C126.312 87.625 125.734 87.8906 125.203 88.0469C124.672 88.2031 124.188 88.2812 123.75 88.2812C123.125 88.2812 122.594 88.1406 122.156 87.8594C121.719 87.5781 121.359 87.1875 121.078 86.6875C120.797 86.1875 120.578 85.625 120.422 85C120.297 84.3438 120.234 83.6562 120.234 82.9375C120.234 82.1562 120.312 81.375 120.469 80.5938C120.625 79.8125 120.828 79.0625 121.078 78.3438C120.172 80.125 119.109 81.6719 117.891 82.9844C116.703 84.2969 115.422 85.4062 114.047 86.3125C112.703 87.1875 111.312 87.8438 109.875 88.2812C108.438 88.7188 107.031 88.9375 105.656 88.9375C104.281 88.9375 102.984 88.7188 101.766 88.2812C100.547 87.8438 99.4688 87.2031 98.5312 86.3594C97.625 85.4844 96.9062 84.4062 96.375 83.125C95.8438 81.8438 95.5781 80.3594 95.5781 78.6719C95.5781 77.6719 95.6719 76.5625 95.8594 75.3438C96.0781 74.125 96.3594 72.8906 96.7031 71.6406C97.0469 70.3906 97.4375 69.1719 97.875 67.9844C98.3125 66.7656 98.7656 65.6562 99.2344 64.6562L85.6875 72.625ZM128.297 55.375C125.797 55.375 123.406 55.7969 121.125 56.6406C118.844 57.4844 116.719 58.5938 114.75 59.9688C112.812 61.3438 111.047 62.9219 109.453 64.7031C107.891 66.4531 106.547 68.2656 105.422 70.1406C104.328 71.9844 103.469 73.8125 102.844 75.625C102.25 77.4375 101.953 79.0625 101.953 80.5C101.953 82.0938 102.297 83.3906 102.984 84.3906C103.703 85.3594 104.859 85.8438 106.453 85.8438C107.391 85.8438 108.406 85.5625 109.5 85C110.625 84.4062 111.75 83.6406 112.875 82.7031C114.031 81.7344 115.156 80.6562 116.25 79.4688C117.375 78.25 118.406 77.0312 119.344 75.8125C120.281 74.5625 121.094 73.3594 121.781 72.2031C122.5 71.0156 123.016 69.9844 123.328 69.1094L128.297 55.375ZM256.172 68.7344C256.578 68.5781 256.906 68.5 257.156 68.5C257.594 68.5 257.984 68.6094 258.328 68.8281C258.703 69.0469 258.891 69.3594 258.891 69.7656C258.891 70.2031 258.422 70.8125 257.484 71.5938C256.547 72.3438 255.406 73.1562 254.062 74.0312C252.719 74.9062 251.328 75.7812 249.891 76.6562C248.453 77.5 247.219 78.2344 246.188 78.8594C244.812 79.7656 243.266 80.8594 241.547 82.1406C239.828 83.3906 238.047 84.6094 236.203 85.7969C234.391 86.9844 232.594 87.9844 230.812 88.7969C229.062 89.6406 227.469 90.0625 226.031 90.0625C224.75 90.0625 223.656 89.5938 222.75 88.6562C221.875 87.75 221.438 86.2812 221.438 84.25C221.438 83.0312 221.625 81.6094 222 79.9844C222.375 78.3281 223 76.4219 223.875 74.2656C224.906 71.7031 225.797 69.4531 226.547 67.5156C227.328 65.5781 227.969 63.9219 228.469 62.5469C228.969 61.1719 229.344 60.0469 229.594 59.1719C229.844 58.2656 229.969 57.5625 229.969 57.0625C229.969 56 229.578 55.4688 228.797 55.4688C228.016 55.4688 226.922 55.9844 225.516 57.0156C224.109 58.0156 222.531 59.3438 220.781 61C219.062 62.6562 217.25 64.5625 215.344 66.7188C213.469 68.8438 211.672 71.0469 209.953 73.3281C208.234 75.6094 206.688 77.8594 205.312 80.0781C203.938 82.2969 202.891 84.3125 202.172 86.125C202.047 86.4375 201.812 86.75 201.469 87.0625C201.125 87.3438 200.719 87.6094 200.25 87.8594C199.812 88.0781 199.328 88.25 198.797 88.375C198.266 88.5312 197.75 88.6094 197.25 88.6094C196.406 88.6094 195.672 88.375 195.047 87.9062C194.422 87.4062 194.109 86.5625 194.109 85.375C194.109 84.375 194.297 83.2344 194.672 81.9531C195.078 80.6406 195.469 79.4062 195.844 78.25C196.375 76.375 196.938 74.4844 197.531 72.5781C198.156 70.6406 198.734 68.875 199.266 67.2812C199.891 65.4375 200.516 63.6406 201.141 61.8906C201.422 61.4219 201.719 60.9219 202.031 60.3906C202.375 59.8281 202.672 59.2656 202.922 58.7031C203.172 58.1406 203.375 57.5938 203.531 57.0625C203.719 56.5 203.812 56 203.812 55.5625C203.812 54.7812 203.453 54.3906 202.734 54.3906C201.266 54.3906 199.578 54.9219 197.672 55.9844C195.797 57.0156 193.844 58.375 191.812 60.0625C189.812 61.7188 187.812 63.6094 185.812 65.7344C183.812 67.8281 181.969 69.9531 180.281 72.1094C178.594 74.2344 177.141 76.2812 175.922 78.25C174.703 80.1875 173.859 81.8438 173.391 83.2188C173.109 84.0625 172.844 84.7969 172.594 85.4219C172.375 86.0469 172.125 86.5625 171.844 86.9688C171.562 87.375 171.219 87.6875 170.812 87.9062C170.406 88.0938 169.875 88.1875 169.219 88.1875C167.906 88.1875 167.016 87.8281 166.547 87.1094C166.109 86.3594 165.891 85.4062 165.891 84.25C165.891 83.7188 166.047 82.9062 166.359 81.8125C166.672 80.6875 167.078 79.4062 167.578 77.9688C168.109 76.5312 168.688 74.9844 169.312 73.3281C169.938 71.6406 170.562 69.9688 171.188 68.3125C171.844 66.625 172.469 65 173.062 63.4375C173.656 61.875 174.156 60.4844 174.562 59.2656L151.875 72.625C151.469 72.8438 151.078 72.9531 150.703 72.9531C150.328 72.9531 150.016 72.8438 149.766 72.625C149.484 72.4062 149.344 72.1094 149.344 71.7344C149.344 71.3281 149.547 70.8594 149.953 70.3281C150.328 69.7969 150.969 69.2656 151.875 68.7344L168.609 58.8906C169.016 58.5781 169.484 58.2656 170.016 57.9531C170.578 57.6406 171.156 57.3594 171.75 57.1094C172.375 56.8594 173 56.6562 173.625 56.5C174.25 56.3438 174.875 56.2656 175.5 56.2656C176.188 56.2656 176.797 56.4375 177.328 56.7812C177.891 57.0938 178.359 57.5 178.734 58C179.109 58.4688 179.391 59 179.578 59.5938C179.797 60.1875 179.906 60.75 179.906 61.2812C179.906 61.8438 179.859 62.4062 179.766 62.9688C179.703 63.5 179.547 64.1719 179.297 64.9844C179.078 65.7656 178.766 66.7344 178.359 67.8906C177.953 69.0469 177.422 70.5312 176.766 72.3438C177.859 70.875 179 69.3594 180.188 67.7969C181.406 66.2031 182.688 64.6562 184.031 63.1562C185.375 61.625 186.797 60.1719 188.297 58.7969C189.828 57.4219 191.438 56.2188 193.125 55.1875C194.812 54.1562 196.594 53.3438 198.469 52.75C200.375 52.125 202.375 51.8125 204.469 51.8125C205.094 51.8125 205.703 51.9688 206.297 52.2812C206.922 52.5625 207.469 53.0156 207.938 53.6406C208.438 54.2656 208.828 55.0625 209.109 56.0312C209.422 57 209.578 58.1406 209.578 59.4531C209.578 60.9844 209.344 62.75 208.875 64.75C208.438 66.7188 207.672 68.9688 206.578 71.5C208.797 68.25 211.031 65.5312 213.281 63.3438C215.562 61.125 217.766 59.2969 219.891 57.8594C222.047 56.4219 224.094 55.3281 226.031 54.5781C227.969 53.7969 229.719 53.2188 231.281 52.8438C232.156 52.8438 233.078 52.9688 234.047 53.2188C235.016 53.4688 235.891 53.8438 236.672 54.3438C237.453 54.8125 238.094 55.4219 238.594 56.1719C239.125 56.9219 239.391 57.7969 239.391 58.7969C239.391 59.0781 239.375 59.3594 239.344 59.6406C239.312 59.9219 239.25 60.2188 239.156 60.5312C238.781 61.8438 238.266 63.2656 237.609 64.7969C236.953 66.2969 236.25 67.8281 235.5 69.3906C234.75 70.9531 233.969 72.5 233.156 74.0312C232.375 75.5312 231.672 76.9531 231.047 78.2969C230.422 79.6094 229.906 80.7969 229.5 81.8594C229.094 82.8906 228.891 83.7031 228.891 84.2969C228.891 85.0469 229.172 85.4219 229.734 85.4219C230.203 85.4219 230.922 85.125 231.891 84.5312C232.891 83.9375 234.031 83.2031 235.312 82.3281C236.594 81.4219 237.984 80.4375 239.484 79.375C240.984 78.3125 242.484 77.3125 243.984 76.375L256.172 68.7344ZM308.906 72.625C304.062 75.4062 299.953 77.8281 296.578 79.8906C293.203 81.9219 290.328 83.6094 287.953 84.9531C285.578 86.2656 283.562 87.25 281.906 87.9062C280.281 88.5312 278.797 88.8438 277.453 88.8438C276.141 88.8438 275.016 88.6875 274.078 88.375C273.172 88.0625 272.422 87.6406 271.828 87.1094C271.234 86.5781 270.797 85.9375 270.516 85.1875C270.266 84.4375 270.141 83.625 270.141 82.75C270.141 82.0938 270.281 81.4219 270.562 80.7344C270.844 80.0469 271.188 79.3438 271.594 78.625C272.031 77.9062 272.484 77.1562 272.953 76.375C273.422 75.5625 273.859 74.7031 274.266 73.7969L281.391 57.8594L256.219 72.625C255.812 72.7812 255.531 72.8594 255.375 72.8594C255 72.8594 254.672 72.7344 254.391 72.4844C254.078 72.2344 253.922 71.9062 253.922 71.5C253.922 71.125 254.094 70.7031 254.438 70.2344C254.75 69.7656 255.344 69.2656 256.219 68.7344L268.359 61.6562C269.953 60.7188 271.562 59.7812 273.188 58.8438C274.812 57.9062 276.328 57.0312 277.734 56.2188C279.172 55.4062 280.453 54.6875 281.578 54.0625C282.734 53.4062 283.625 52.9062 284.25 52.5625H290.297C290.422 52.6562 290.531 52.8125 290.625 53.0312C290.719 53.25 290.766 53.5781 290.766 54.0156C290.766 54.8281 290.531 55.9844 290.062 57.4844C289.594 58.9531 289 60.6094 288.281 62.4531C287.594 64.2969 286.812 66.2344 285.938 68.2656C285.094 70.2656 284.297 72.1719 283.547 73.9844C282.797 75.7656 282.016 77.5469 281.203 79.3281C280.391 81.1094 279.578 82.9375 278.766 84.8125C279.609 84.8125 280.938 84.3906 282.75 83.5469C284.594 82.7031 286.812 81.5625 289.406 80.125C292.031 78.6562 294.984 76.9531 298.266 75.0156C301.578 73.0469 305.125 70.9531 308.906 68.7344C309.031 68.6094 309.266 68.5469 309.609 68.5469C309.984 68.5469 310.328 68.6719 310.641 68.9219C310.984 69.1719 311.156 69.5156 311.156 69.9531C311.156 70.3281 310.984 70.75 310.641 71.2188C310.328 71.6562 309.75 72.125 308.906 72.625ZM295.969 36.1562C296.156 36.1562 296.5 36.1719 297 36.2031C297.531 36.2031 298.125 36.2344 298.781 36.2969C299.438 36.3594 300.125 36.4688 300.844 36.625C301.562 36.75 302.219 36.9531 302.812 37.2344C303.406 37.4844 303.906 37.8125 304.312 38.2188C304.719 38.625 304.938 39.125 304.969 39.7188L298.172 44.875L295.078 46.3281C294.516 46.3281 294.078 46.1719 293.766 45.8594C293.453 45.5469 293.219 45.2188 293.062 44.875L295.969 36.1562ZM362.203 68.7344C362.422 68.6094 362.656 68.5469 362.906 68.5469C363.281 68.5469 363.625 68.6719 363.938 68.9219C364.25 69.1719 364.406 69.5156 364.406 69.9531C364.406 70.3281 364.234 70.75 363.891 71.2188C363.578 71.6875 363.016 72.1562 362.203 72.625C360.609 73.5312 358.859 74.5469 356.953 75.6719C355.078 76.7656 353.141 77.8906 351.141 79.0469C349.172 80.2031 347.203 81.3438 345.234 82.4688C343.266 83.5938 341.391 84.625 339.609 85.5625C337.859 86.5 336.266 87.3125 334.828 88C333.391 88.6562 332.219 89.1094 331.312 89.3594C330.812 89.5156 330.344 89.6094 329.906 89.6406C329.5 89.7031 329.125 89.7344 328.781 89.7344C327.469 89.7344 326.391 89.4062 325.547 88.75C324.703 88.0938 324.031 87.2188 323.531 86.125C323.062 85 322.734 83.7031 322.547 82.2344C322.359 80.7344 322.266 79.1562 322.266 77.5C322.266 75.25 322.375 72.9688 322.594 70.6562C322.812 68.3125 323.016 66.1562 323.203 64.1875L313.031 70.1875L308.906 72.625C308.688 72.75 308.438 72.8125 308.156 72.8125C307.781 72.8125 307.453 72.6875 307.172 72.4375C306.891 72.1875 306.75 71.8438 306.75 71.4062C306.75 71.0312 306.906 70.625 307.219 70.1875C307.531 69.7188 308.094 69.2344 308.906 68.7344L323.484 60.1562C324.984 54.9688 326.531 50.2031 328.125 45.8594C329.719 41.5156 331.453 37.5938 333.328 34.0938C335.203 30.5937 337.25 27.5156 339.469 24.8594C341.688 22.2031 344.172 20 346.922 18.25C349.672 16.4688 352.719 15.1406 356.062 14.2656C359.438 13.3594 363.188 12.9062 367.312 12.9062C369.375 12.9062 371.109 13.0938 372.516 13.4688C373.922 13.8125 375.062 14.3281 375.938 15.0156C376.844 15.6719 377.484 16.4688 377.859 17.4062C378.266 18.3438 378.469 19.375 378.469 20.5C378.469 21.9062 378 23.4219 377.062 25.0469C376.125 26.6406 374.859 28.2969 373.266 30.0156C371.672 31.7344 369.828 33.4844 367.734 35.2656C365.641 37.0156 363.438 38.75 361.125 40.4688C358.812 42.1875 356.453 43.8438 354.047 45.4375C351.672 47.0312 349.391 48.5156 347.203 49.8906C345.047 51.2656 343.047 52.5 341.203 53.5938C339.391 54.6875 337.906 55.5781 336.75 56.2656C336.188 58.2344 335.625 60.2969 335.062 62.4531C334.5 64.6094 333.984 66.7812 333.516 68.9688C333.078 71.1562 332.719 73.3281 332.438 75.4844C332.156 77.6094 332.016 79.6094 332.016 81.4844C332.016 82.2344 332.078 82.875 332.203 83.4062C332.359 83.9375 332.609 84.2031 332.953 84.2031C333.547 84.2031 334.422 83.9844 335.578 83.5469C336.766 83.0781 338.125 82.4531 339.656 81.6719C341.188 80.8906 342.859 80 344.672 79C346.516 77.9688 348.422 76.875 350.391 75.7188C352.359 74.5625 354.344 73.3906 356.344 72.2031C358.344 71.0156 360.297 69.8594 362.203 68.7344ZM337.406 51.9531C339.281 50.9531 341.5 49.6406 344.062 48.0156C346.656 46.3906 349.328 44.6094 352.078 42.6719C354.859 40.7031 357.594 38.6406 360.281 36.4844C362.969 34.3281 365.375 32.2188 367.5 30.1562C369.656 28.0938 371.391 26.1406 372.703 24.2969C374.016 22.4219 374.672 20.7969 374.672 19.4219C374.672 18.2656 374.062 17.3438 372.844 16.6562C371.656 15.9375 369.703 15.5781 366.984 15.5781C362.703 15.5781 359 16.3437 355.875 17.875C352.75 19.4063 350.031 21.6875 347.719 24.7188C345.438 27.75 343.469 31.5469 341.812 36.1094C340.188 40.6406 338.719 45.9219 337.406 51.9531ZM443.203 72.625C441.453 73.6562 439.75 74.6719 438.094 75.6719C436.469 76.6406 434.828 77.6719 433.172 78.7656C431.516 79.8594 429.812 81.0312 428.062 82.2812C426.344 83.5312 424.531 84.9375 422.625 86.5C421.062 90.5625 419.359 94.7656 417.516 99.1094C415.703 103.453 413.781 107.688 411.75 111.812C409.75 115.969 407.656 119.891 405.469 123.578C403.281 127.297 401.031 130.547 398.719 133.328C396.438 136.109 394.109 138.312 391.734 139.938C389.391 141.594 387.047 142.422 384.703 142.422C383.516 142.422 382.5 142.281 381.656 142C380.812 141.719 380.109 141.344 379.547 140.875C378.984 140.406 378.562 139.875 378.281 139.281C378.031 138.719 377.906 138.141 377.906 137.547C377.906 136.641 378.172 135.312 378.703 133.562C379.234 131.844 380.094 129.812 381.281 127.469C382.469 125.125 384 122.5 385.875 119.594C387.781 116.688 390.078 113.578 392.766 110.266C395.453 106.984 398.562 103.547 402.094 99.9531C405.656 96.3594 409.703 92.6875 414.234 88.9375C416.047 84.7188 417.594 81.1719 418.875 78.2969C420.156 75.4219 421.219 73.0312 422.062 71.125C422.938 69.2188 423.625 67.7031 424.125 66.5781C424.625 65.4219 425.016 64.4688 425.297 63.7188C423.984 65.4062 422.422 67.2344 420.609 69.2031C418.797 71.1719 416.797 73.1406 414.609 75.1094C412.453 77.0781 410.141 78.9688 407.672 80.7812C405.234 82.5938 402.719 84.2031 400.125 85.6094C397.531 86.9844 394.891 88.0938 392.203 88.9375C389.547 89.7812 386.922 90.2031 384.328 90.2031C382.828 90.2031 381.797 89.7969 381.234 88.9844C380.672 88.2031 380.391 87.1406 380.391 85.7969C380.391 84.5781 380.594 83.1406 381 81.4844C381.438 79.7969 381.984 78.0156 382.641 76.1406C383.297 74.2344 384.031 72.2969 384.844 70.3281C385.688 68.3281 386.516 66.4062 387.328 64.5625C388.141 62.7188 388.891 61.0156 389.578 59.4531C390.297 57.8906 390.875 56.5781 391.312 55.5156C389.906 56.4219 388.125 57.5156 385.969 58.7969C383.844 60.0469 381.5 61.4219 378.938 62.9219C376.375 64.3906 373.656 65.9531 370.781 67.6094C367.938 69.2656 365.094 70.9375 362.25 72.625C361.812 72.875 361.422 73 361.078 73C360.703 73 360.406 72.8906 360.188 72.6719C359.938 72.4219 359.812 72.1094 359.812 71.7344C359.812 71.2969 360 70.8281 360.375 70.3281C360.719 69.7969 361.344 69.2656 362.25 68.7344C366.344 66.3281 369.922 64.2188 372.984 62.4062C376.078 60.5625 378.766 58.9688 381.047 57.625C383.328 56.2812 385.266 55.1562 386.859 54.25C388.453 53.3438 389.812 52.625 390.938 52.0938C392.062 51.5625 393 51.1875 393.75 50.9688C394.5 50.7188 395.188 50.5938 395.812 50.5938C396.75 50.5938 397.516 50.7969 398.109 51.2031C398.703 51.5781 399.172 52.0781 399.516 52.7031C399.891 53.2969 400.141 53.9531 400.266 54.6719C400.391 55.3594 400.453 56.0312 400.453 56.6875C400.453 58.0312 400.109 59.5938 399.422 61.375C398.766 63.125 397.938 64.9531 396.938 66.8594C395.938 68.7656 394.859 70.6875 393.703 72.625C392.547 74.5625 391.469 76.3906 390.469 78.1094C389.469 79.8281 388.625 81.3594 387.938 82.7031C387.281 84.0469 386.953 85.0781 386.953 85.7969C386.953 86.5156 387.312 86.875 388.031 86.875C389.156 86.875 390.609 86.5 392.391 85.75C394.203 84.9688 396.203 83.9219 398.391 82.6094C400.578 81.2656 402.891 79.7031 405.328 77.9219C407.766 76.1094 410.188 74.1719 412.594 72.1094C415 70.0469 417.312 67.9062 419.531 65.6875C421.781 63.4688 423.812 61.25 425.625 59.0312C425.75 58.8438 425.828 58.5156 425.859 58.0469C425.922 57.5469 426.047 57.0469 426.234 56.5469C426.453 56.0156 426.781 55.5625 427.219 55.1875C427.688 54.7812 428.391 54.5781 429.328 54.5781C430.109 54.5781 430.734 54.6719 431.203 54.8594C431.672 55.0469 432.016 55.3125 432.234 55.6562C432.484 55.9688 432.641 56.3594 432.703 56.8281C432.766 57.2656 432.797 57.7656 432.797 58.3281C432.797 58.2656 432.781 58.2344 432.75 58.2344C432.688 58.2344 432.453 58.8125 432.047 59.9688C431.641 61.0938 431.094 62.6719 430.406 64.7031C429.75 66.7031 428.938 69.0781 427.969 71.8281C427.031 74.5781 425.969 77.5625 424.781 80.7812C427.625 78.7188 430.547 76.7031 433.547 74.7344C436.578 72.7344 439.797 70.7344 443.203 68.7344C443.391 68.6406 443.578 68.5938 443.766 68.5938C444.109 68.5938 444.422 68.7344 444.703 69.0156C445.016 69.2969 445.172 69.6562 445.172 70.0938C445.172 70.4688 445.016 70.875 444.703 71.3125C444.422 71.75 443.922 72.1875 443.203 72.625ZM401.156 106.516C400.094 107.641 398.984 109.078 397.828 110.828C396.672 112.578 395.531 114.453 394.406 116.453C393.281 118.484 392.203 120.547 391.172 122.641C390.141 124.766 389.234 126.75 388.453 128.594C387.703 130.438 387.094 132.062 386.625 133.469C386.188 134.906 385.969 135.938 385.969 136.562C385.969 137.281 386.312 137.641 387 137.641C387.812 137.641 388.672 137.25 389.578 136.469C390.516 135.719 391.469 134.688 392.438 133.375C393.438 132.094 394.453 130.594 395.484 128.875C396.516 127.188 397.547 125.391 398.578 123.484C399.609 121.578 400.625 119.625 401.625 117.625C402.656 115.656 403.641 113.766 404.578 111.953C405.766 109.109 406.859 106.453 407.859 103.984C408.891 101.516 409.875 99.1875 410.812 97C407.875 99.75 404.656 102.922 401.156 106.516ZM547.547 68.7344C547.953 68.5781 548.281 68.5 548.531 68.5C548.969 68.5 549.359 68.6094 549.703 68.8281C550.078 69.0469 550.266 69.3594 550.266 69.7656C550.266 70.2031 549.797 70.8125 548.859 71.5938C547.922 72.3438 546.781 73.1562 545.438 74.0312C544.094 74.9062 542.703 75.7812 541.266 76.6562C539.828 77.5 538.594 78.2344 537.562 78.8594C536.188 79.7656 534.641 80.8594 532.922 82.1406C531.203 83.3906 529.422 84.6094 527.578 85.7969C525.766 86.9844 523.969 87.9844 522.188 88.7969C520.438 89.6406 518.844 90.0625 517.406 90.0625C516.125 90.0625 515.031 89.5938 514.125 88.6562C513.25 87.75 512.812 86.2812 512.812 84.25C512.812 83.0312 513 81.6094 513.375 79.9844C513.75 78.3281 514.375 76.4219 515.25 74.2656C516.281 71.7031 517.172 69.4531 517.922 67.5156C518.703 65.5781 519.344 63.9219 519.844 62.5469C520.344 61.1719 520.719 60.0469 520.969 59.1719C521.219 58.2656 521.344 57.5625 521.344 57.0625C521.344 56 520.953 55.4688 520.172 55.4688C519.391 55.4688 518.297 55.9844 516.891 57.0156C515.484 58.0156 513.906 59.3438 512.156 61C510.438 62.6562 508.625 64.5625 506.719 66.7188C504.844 68.8438 503.047 71.0469 501.328 73.3281C499.609 75.6094 498.062 77.8594 496.688 80.0781C495.312 82.2969 494.266 84.3125 493.547 86.125C493.422 86.4375 493.188 86.75 492.844 87.0625C492.5 87.3438 492.094 87.6094 491.625 87.8594C491.188 88.0781 490.703 88.25 490.172 88.375C489.641 88.5312 489.125 88.6094 488.625 88.6094C487.781 88.6094 487.047 88.375 486.422 87.9062C485.797 87.4062 485.484 86.5625 485.484 85.375C485.484 84.375 485.672 83.2344 486.047 81.9531C486.453 80.6406 486.844 79.4062 487.219 78.25C487.75 76.375 488.312 74.4844 488.906 72.5781C489.531 70.6406 490.109 68.875 490.641 67.2812C491.266 65.4375 491.891 63.6406 492.516 61.8906C492.797 61.4219 493.094 60.9219 493.406 60.3906C493.75 59.8281 494.047 59.2656 494.297 58.7031C494.547 58.1406 494.75 57.5938 494.906 57.0625C495.094 56.5 495.188 56 495.188 55.5625C495.188 54.7812 494.828 54.3906 494.109 54.3906C492.641 54.3906 490.953 54.9219 489.047 55.9844C487.172 57.0156 485.219 58.375 483.188 60.0625C481.188 61.7188 479.188 63.6094 477.188 65.7344C475.188 67.8281 473.344 69.9531 471.656 72.1094C469.969 74.2344 468.516 76.2812 467.297 78.25C466.078 80.1875 465.234 81.8438 464.766 83.2188C464.484 84.0625 464.219 84.7969 463.969 85.4219C463.75 86.0469 463.5 86.5625 463.219 86.9688C462.938 87.375 462.594 87.6875 462.188 87.9062C461.781 88.0938 461.25 88.1875 460.594 88.1875C459.281 88.1875 458.391 87.8281 457.922 87.1094C457.484 86.3594 457.266 85.4062 457.266 84.25C457.266 83.7188 457.422 82.9062 457.734 81.8125C458.047 80.6875 458.453 79.4062 458.953 77.9688C459.484 76.5312 460.062 74.9844 460.688 73.3281C461.312 71.6406 461.938 69.9688 462.562 68.3125C463.219 66.625 463.844 65 464.438 63.4375C465.031 61.875 465.531 60.4844 465.938 59.2656L443.25 72.625C442.844 72.8438 442.453 72.9531 442.078 72.9531C441.703 72.9531 441.391 72.8438 441.141 72.625C440.859 72.4062 440.719 72.1094 440.719 71.7344C440.719 71.3281 440.922 70.8594 441.328 70.3281C441.703 69.7969 442.344 69.2656 443.25 68.7344L459.984 58.8906C460.391 58.5781 460.859 58.2656 461.391 57.9531C461.953 57.6406 462.531 57.3594 463.125 57.1094C463.75 56.8594 464.375 56.6562 465 56.5C465.625 56.3438 466.25 56.2656 466.875 56.2656C467.562 56.2656 468.172 56.4375 468.703 56.7812C469.266 57.0938 469.734 57.5 470.109 58C470.484 58.4688 470.766 59 470.953 59.5938C471.172 60.1875 471.281 60.75 471.281 61.2812C471.281 61.8438 471.234 62.4062 471.141 62.9688C471.078 63.5 470.922 64.1719 470.672 64.9844C470.453 65.7656 470.141 66.7344 469.734 67.8906C469.328 69.0469 468.797 70.5312 468.141 72.3438C469.234 70.875 470.375 69.3594 471.562 67.7969C472.781 66.2031 474.062 64.6562 475.406 63.1562C476.75 61.625 478.172 60.1719 479.672 58.7969C481.203 57.4219 482.812 56.2188 484.5 55.1875C486.188 54.1562 487.969 53.3438 489.844 52.75C491.75 52.125 493.75 51.8125 495.844 51.8125C496.469 51.8125 497.078 51.9688 497.672 52.2812C498.297 52.5625 498.844 53.0156 499.312 53.6406C499.812 54.2656 500.203 55.0625 500.484 56.0312C500.797 57 500.953 58.1406 500.953 59.4531C500.953 60.9844 500.719 62.75 500.25 64.75C499.812 66.7188 499.047 68.9688 497.953 71.5C500.172 68.25 502.406 65.5312 504.656 63.3438C506.938 61.125 509.141 59.2969 511.266 57.8594C513.422 56.4219 515.469 55.3281 517.406 54.5781C519.344 53.7969 521.094 53.2188 522.656 52.8438C523.531 52.8438 524.453 52.9688 525.422 53.2188C526.391 53.4688 527.266 53.8438 528.047 54.3438C528.828 54.8125 529.469 55.4219 529.969 56.1719C530.5 56.9219 530.766 57.7969 530.766 58.7969C530.766 59.0781 530.75 59.3594 530.719 59.6406C530.688 59.9219 530.625 60.2188 530.531 60.5312C530.156 61.8438 529.641 63.2656 528.984 64.7969C528.328 66.2969 527.625 67.8281 526.875 69.3906C526.125 70.9531 525.344 72.5 524.531 74.0312C523.75 75.5312 523.047 76.9531 522.422 78.2969C521.797 79.6094 521.281 80.7969 520.875 81.8594C520.469 82.8906 520.266 83.7031 520.266 84.2969C520.266 85.0469 520.547 85.4219 521.109 85.4219C521.578 85.4219 522.297 85.125 523.266 84.5312C524.266 83.9375 525.406 83.2031 526.688 82.3281C527.969 81.4219 529.359 80.4375 530.859 79.375C532.359 78.3125 533.859 77.3125 535.359 76.375L547.547 68.7344ZM547.594 72.625C547.375 72.75 547.172 72.8125 546.984 72.8125C546.672 72.8125 546.438 72.6875 546.281 72.4375C546.125 72.1562 546.047 71.8125 546.047 71.4062C546.047 70.9688 546.156 70.5 546.375 70C546.594 69.5 547 69.0781 547.594 68.7344L564.938 58.5156C567.094 57.2656 569.391 56.1875 571.828 55.2812C574.266 54.375 576.734 53.6406 579.234 53.0781C581.766 52.4844 584.266 52.0625 586.734 51.8125C589.203 51.5312 591.531 51.3906 593.719 51.3906C594.969 51.3906 596.141 51.4844 597.234 51.6719C598.328 51.8281 599.266 52.0781 600.047 52.4219C600.859 52.7344 601.484 53.125 601.922 53.5938C602.391 54.0625 602.625 54.5938 602.625 55.1875C602.625 55.625 602.469 55.9375 602.156 56.125C601.844 56.3125 601.469 56.4531 601.031 56.5469C600.625 56.6094 600.188 56.6562 599.719 56.6875C599.281 56.7188 598.938 56.7969 598.688 56.9219C598.5 57.5156 598.203 58.4375 597.797 59.6875C597.391 60.9062 596.984 62.1719 596.578 63.4844C596.172 64.7656 595.797 65.9219 595.453 66.9531C595.141 67.9531 594.969 68.5312 594.938 68.6875C594.531 70 593.969 71.6719 593.25 73.7031C592.562 75.7031 591.797 78.3906 590.953 81.7656C590.984 81.7656 591.328 81.5938 591.984 81.25C592.672 80.875 593.547 80.3906 594.609 79.7969C595.703 79.2031 596.938 78.5156 598.312 77.7344C599.688 76.9531 601.109 76.1562 602.578 75.3438L613.781 68.7344C614.219 68.4844 614.594 68.3594 614.906 68.3594C615.25 68.3594 615.516 68.4844 615.703 68.7344C615.891 68.9531 615.984 69.2344 615.984 69.5781C615.984 70.0156 615.812 70.5312 615.469 71.125C615.125 71.6875 614.562 72.1875 613.781 72.625L588.844 87.25C588.219 87.625 587.641 87.8906 587.109 88.0469C586.578 88.2031 586.094 88.2812 585.656 88.2812C585.031 88.2812 584.5 88.1406 584.062 87.8594C583.625 87.5781 583.266 87.1875 582.984 86.6875C582.703 86.1875 582.484 85.625 582.328 85C582.203 84.3438 582.141 83.6562 582.141 82.9375C582.141 82.1562 582.219 81.375 582.375 80.5938C582.531 79.8125 582.734 79.0625 582.984 78.3438C582.078 80.125 581.016 81.6719 579.797 82.9844C578.609 84.2969 577.328 85.4062 575.953 86.3125C574.609 87.1875 573.219 87.8438 571.781 88.2812C570.344 88.7188 568.938 88.9375 567.562 88.9375C566.188 88.9375 564.891 88.7188 563.672 88.2812C562.453 87.8438 561.375 87.2031 560.438 86.3594C559.531 85.4844 558.812 84.4062 558.281 83.125C557.75 81.8438 557.484 80.3594 557.484 78.6719C557.484 77.6719 557.578 76.5625 557.766 75.3438C557.984 74.125 558.266 72.8906 558.609 71.6406C558.953 70.3906 559.344 69.1719 559.781 67.9844C560.219 66.7656 560.672 65.6562 561.141 64.6562L547.594 72.625ZM590.203 55.375C587.703 55.375 585.312 55.7969 583.031 56.6406C580.75 57.4844 578.625 58.5938 576.656 59.9688C574.719 61.3438 572.953 62.9219 571.359 64.7031C569.797 66.4531 568.453 68.2656 567.328 70.1406C566.234 71.9844 565.375 73.8125 564.75 75.625C564.156 77.4375 563.859 79.0625 563.859 80.5C563.859 82.0938 564.203 83.3906 564.891 84.3906C565.609 85.3594 566.766 85.8438 568.359 85.8438C569.297 85.8438 570.312 85.5625 571.406 85C572.531 84.4062 573.656 83.6406 574.781 82.7031C575.938 81.7344 577.062 80.6562 578.156 79.4688C579.281 78.25 580.312 77.0312 581.25 75.8125C582.188 74.5625 583 73.3594 583.688 72.2031C584.406 71.0156 584.922 69.9844 585.234 69.1094L590.203 55.375ZM666.328 54.2031C666.328 54.9844 666.188 55.9062 665.906 56.9688C665.625 58 665.266 59.1094 664.828 60.2969C664.391 61.4531 663.922 62.6406 663.422 63.8594C662.922 65.0781 662.453 66.2656 662.016 67.4219C661.578 68.5469 661.219 69.6094 660.938 70.6094C660.656 71.6094 660.516 72.4531 660.516 73.1406C660.516 73.7344 660.641 74.2031 660.891 74.5469C661.172 74.8906 661.609 75.0625 662.203 75.0625C662.641 75.0625 663.25 74.9062 664.031 74.5938C664.844 74.25 665.781 73.7969 666.844 73.2344C667.938 72.6406 669.125 71.9688 670.406 71.2188C671.719 70.4375 673.094 69.6094 674.531 68.7344C674.844 68.5469 675.156 68.4531 675.469 68.4531C675.812 68.4531 676.109 68.5781 676.359 68.8281C676.641 69.0781 676.781 69.3906 676.781 69.7656C676.781 70.1719 676.609 70.6094 676.266 71.0781C675.922 71.5156 675.344 72.0312 674.531 72.625C670.469 75.6562 666.75 78 663.375 79.6562C660.031 81.3125 657.359 82.1406 655.359 82.1406C653.734 82.1406 652.453 81.8906 651.516 81.3906C650.578 80.8906 650.109 80.1094 650.109 79.0469C650.109 78.0469 650.531 76.7812 651.375 75.25C652.25 73.7188 653.672 71.9062 655.641 69.8125C656.391 68.5625 656.984 67.2031 657.422 65.7344C657.859 64.2344 658.172 62.7812 658.359 61.375C658.578 59.9375 658.719 58.625 658.781 57.4375C658.844 56.2188 658.875 55.25 658.875 54.5312C658.875 53.3438 658.672 52.4375 658.266 51.8125C657.891 51.1562 657.25 50.8281 656.344 50.8281C655.344 50.8281 654.359 51.2812 653.391 52.1875C652.453 53.0625 651.5 54.2812 650.531 55.8438C649.594 57.4062 648.656 59.25 647.719 61.375C646.781 63.5 645.812 65.7969 644.812 68.2656C643.844 70.7344 642.844 73.3125 641.812 76C640.781 78.6875 639.703 81.3906 638.578 84.1094C638.391 84.6406 638.156 85.1875 637.875 85.75C637.594 86.3125 637.266 86.8438 636.891 87.3438C636.547 87.8125 636.141 88.2031 635.672 88.5156C635.234 88.8281 634.766 88.9844 634.266 88.9844C633.078 88.9844 632.188 88.7188 631.594 88.1875C631 87.6562 630.703 86.7812 630.703 85.5625C630.703 85.2188 630.719 84.8594 630.75 84.4844C630.812 84.1094 630.969 83.6719 631.219 83.1719L640.266 65.0312C641.453 61.9688 642.719 59.4375 644.062 57.4375C645.438 55.4375 646.672 53.8281 647.766 52.6094C645.203 54.1406 642.641 55.6719 640.078 57.2031C637.516 58.7344 635.047 60.2188 632.672 61.6562C630.297 63.0625 628.047 64.4062 625.922 65.6875C623.828 66.9375 621.953 68.0469 620.297 69.0156C618.641 69.9844 617.25 70.7812 616.125 71.4062C615 72.0312 614.219 72.4375 613.781 72.625C613.531 72.7812 613.266 72.8594 612.984 72.8594C612.641 72.8594 612.359 72.7344 612.141 72.4844C611.891 72.2344 611.766 71.9062 611.766 71.5C611.766 71.0625 611.922 70.5938 612.234 70.0938C612.516 69.5625 613.031 69.0781 613.781 68.6406L626.297 61.3281C627.922 60.3594 629.562 59.3906 631.219 58.4219C632.875 57.4219 634.422 56.5 635.859 55.6562C637.328 54.8125 638.625 54.0625 639.75 53.4062C640.875 52.75 641.734 52.25 642.328 51.9062C643.828 51.0312 645.281 50.2812 646.688 49.6562C648.125 49.0312 649.547 48.5156 650.953 48.1094C652.359 47.7031 653.781 47.3906 655.219 47.1719C656.688 46.9531 658.219 46.7969 659.812 46.7031C660.5 46.7031 661.219 46.9219 661.969 47.3594C662.75 47.7656 663.453 48.3281 664.078 49.0469C664.734 49.7344 665.266 50.5312 665.672 51.4375C666.109 52.3125 666.328 53.2344 666.328 54.2031ZM725.297 22.6094C723.516 22.6094 721.828 22.9844 720.234 23.7344C718.641 24.4844 717.125 25.5156 715.688 26.8281C714.281 28.1406 712.953 29.7031 711.703 31.5156C710.453 33.3281 709.281 35.2812 708.188 37.375C707.094 39.4688 706.078 41.6719 705.141 43.9844C704.234 46.2969 703.406 48.625 702.656 50.9688C706.875 47.9375 710.578 45.0625 713.766 42.3438C716.953 39.625 719.625 37.1406 721.781 34.8906C723.938 32.6406 725.547 30.6563 726.609 28.9375C727.703 27.1875 728.25 25.7656 728.25 24.6719C728.25 24.0469 728.047 23.5469 727.641 23.1719C727.266 22.7969 726.484 22.6094 725.297 22.6094ZM730.031 50.2656C730.781 50.6406 731.156 51.0938 731.156 51.625C731.156 52.4375 730.844 53.1875 730.219 53.875C729.625 54.5625 728.828 55.1875 727.828 55.75C726.859 56.2812 725.75 56.75 724.5 57.1562C723.281 57.5625 722.047 57.9062 720.797 58.1875C719.578 58.4688 718.406 58.6875 717.281 58.8438C716.031 59 715.094 59.0625 714.469 59.0312C712.031 58.9688 709.625 58.9219 707.25 58.8906L700.359 58.7969C699.422 62.2969 698.688 65.2969 698.156 67.7969C697.625 70.2656 697.219 72.4219 696.938 74.2656C696.688 76.0781 696.531 77.6562 696.469 79C696.406 80.3438 696.375 81.6406 696.375 82.8906C696.375 83.5781 696.469 84.125 696.656 84.5312C696.844 84.9375 697.156 85.1406 697.594 85.1406C699.125 85.1406 700.812 84.625 702.656 83.5938C704.531 82.5625 706.625 81.25 708.938 79.6562L716.719 74.3594C720.969 71.4531 724.156 69.5781 726.281 68.7344C726.438 68.6719 726.75 68.5312 727.219 68.3125C727.469 68.2188 727.703 68.1719 727.922 68.1719C728.609 68.1719 728.953 68.5312 728.953 69.25C728.953 69.7188 728.75 70.2656 728.344 70.8906C727.906 71.4844 727.219 72.0625 726.281 72.625C721.5 75.5 717.969 77.75 715.688 79.375L707.672 85.1875C705.297 86.875 703.125 88.2188 701.156 89.2188C699.156 90.2188 697.141 90.7188 695.109 90.7188C693.359 90.7188 692 90.25 691.031 89.3125C690.094 88.375 689.391 87.2344 688.922 85.8906C688.484 84.5156 688.219 83.0469 688.125 81.4844C688.031 79.9219 687.984 78.5312 687.984 77.3125C687.984 74.9375 688.109 72.5781 688.359 70.2344C688.641 67.8906 689 65.6406 689.438 63.4844L682.078 68.125L674.531 72.625C674.375 72.7188 674.203 72.7656 674.016 72.7656C673.672 72.7656 673.344 72.625 673.031 72.3438C672.719 72.0312 672.562 71.6562 672.562 71.2188C672.562 70.875 672.703 70.4844 672.984 70.0469C673.266 69.6094 673.781 69.1719 674.531 68.7344L682.828 64C685.453 62.4375 687.984 60.8594 690.422 59.2656L690.516 58.8438L684.516 58.9844C684.203 58.9844 683.906 59 683.625 59.0312C683.344 59.0625 683.078 59.0781 682.828 59.0781C682.297 59.0781 681.859 58.9219 681.516 58.6094C681.203 58.2656 681.016 57.8906 680.953 57.4844C680.953 57.1406 681.219 56.8125 681.75 56.5C682.281 56.1875 683.031 55.9062 684 55.6562C684.969 55.375 686.125 55.125 687.469 54.9062C688.812 54.6562 690.297 54.4375 691.922 54.25C693.797 48.375 695.828 43.2812 698.016 38.9688C700.203 34.6562 702.656 31.0938 705.375 28.2812C708.125 25.4688 711.188 23.375 714.562 22C717.938 20.625 721.75 19.9375 726 19.9375C727.969 19.9375 729.391 20.25 730.266 20.875C731.172 21.4688 731.625 22.3125 731.625 23.4062C731.625 24.9062 730.953 26.7188 729.609 28.8438C728.297 30.9687 726.438 33.3281 724.031 35.9219C721.656 38.4844 718.797 41.2188 715.453 44.125C712.141 47 708.469 49.9531 704.438 52.9844C706.438 52.7969 708.469 52.625 710.531 52.4688L716.625 51.9531C718.625 51.7969 720.578 51.625 722.484 51.4375C724.422 51.25 726.266 51.0469 728.016 50.8281C728.359 50.7344 728.609 50.6094 728.766 50.4531C728.922 50.2656 729.188 50.1719 729.562 50.1719C729.688 50.1719 729.844 50.2031 730.031 50.2656Z" fill="#272727"/>
</svg>
