<svg width="601" height="433" viewBox="0 0 601 433" fill="none" xmlns="http://www.w3.org/2000/svg">
<path d="M137.369 129.532C138.641 130.323 139.89 131.129 141.137 131.962C154.309 165.103 161.831 200.219 163.387 235.849C163.579 239.969 163.676 244.083 163.679 248.191C163.793 278.994 159.31 309.642 150.379 339.123C149.908 340.675 149.426 342.22 148.935 343.76C148.582 344.864 148.224 345.98 147.834 347.076C147.421 347.638 147.013 348.189 146.606 348.741C146.577 348.765 146.552 348.806 146.523 348.831C146.358 349.053 146.194 349.276 146.047 349.494C145.342 350.44 144.627 351.38 143.923 352.325L144.516 352.365L146.003 352.46L145.997 352.47C145.498 352.46 144.988 352.443 144.485 352.416C144.302 352.417 144.103 352.421 143.916 352.405C143.749 352.402 143.573 352.392 143.406 352.389C121.963 351.808 100.017 350.738 80.5041 341.969C60.0797 332.783 42.7544 312.921 43.6349 290.551C43.7588 287.621 44.2034 284.714 44.9606 281.881C45.2766 280.698 45.6502 279.535 46.0503 278.375C48.4859 271.273 52.7691 264.947 58.4596 260.049C64.1501 255.151 71.0424 251.856 78.4281 250.505C85.8138 249.153 93.4262 249.792 100.483 252.358C107.539 254.923 113.785 259.321 118.578 265.101C112.725 242.097 87.5968 230.359 64.9642 223.222C42.3151 216.09 16.8328 208.629 5.26152 187.902C-1.19893 176.368 -1.35448 162.93 2.86105 150.521C2.98938 150.15 3.12417 149.769 3.26908 149.394C8.57831 134.793 19.2013 122.733 33.0154 115.625C58.8982 102.81 90.349 107.331 116.869 118.769C123.965 121.833 130.818 125.431 137.369 129.532Z" fill="#035706"/>
<path d="M63.1842 278.47C83.5282 280.341 102.731 288.707 117.953 302.332C130.917 314.067 140.484 329.075 145.648 345.782C145.948 346.738 146.222 347.691 146.479 348.65C146.993 347.671 147.492 346.671 147.986 345.68C148.303 345.045 148.627 344.4 148.935 343.76C148.582 344.865 148.224 345.98 147.834 347.076C147.421 347.638 147.013 348.19 146.606 348.741C146.577 348.765 146.552 348.806 146.523 348.831C146.359 349.053 146.194 349.276 146.047 349.494C145.342 350.44 144.627 351.38 143.923 352.325L144.516 352.366L146.003 352.46L145.997 352.47C145.498 352.46 144.988 352.443 144.485 352.417C144.302 352.417 144.103 352.422 143.916 352.405C143.855 352.115 143.777 351.829 143.699 351.542C138.428 329.965 125.526 311.024 107.376 298.219C89.2269 285.415 67.0563 279.611 44.9607 281.881C45.2768 280.698 45.6503 279.535 46.0504 278.375C51.7536 277.909 57.4866 277.94 63.1842 278.47Z" fill="white"/>
<path d="M130.778 193.384C138.941 199.5 146.166 206.775 152.226 214.98C155.383 219.354 158.126 224.012 160.419 228.894C161.507 231.16 162.496 233.492 163.387 235.849C163.579 239.969 163.676 244.083 163.679 248.191C162.923 245.086 162.001 242.023 160.917 239.016C160.353 237.365 159.728 235.746 159.063 234.147C151.603 216.229 138.088 202.081 122.149 191.325C105.069 179.816 85.8133 171.176 66.2989 164.752C46.2999 158.137 25.5654 153.999 4.55942 152.43C4.08503 152.392 3.64372 152.172 3.3274 151.816C3.01109 151.46 2.84415 150.997 2.86131 150.521C2.84518 150.106 2.99159 149.702 3.26935 149.394C3.41691 149.249 3.59631 149.141 3.79315 149.079C3.98999 149.016 4.19879 149.001 4.40274 149.033C6.99496 149.227 9.58047 149.432 12.1658 149.706C33.6775 151.922 54.83 156.805 75.1364 164.242C94.7392 171.394 114.14 180.67 130.778 193.384Z" fill="white"/>
<path d="M24.1908 94.2871C28.1618 94.2871 31.3809 91.068 31.3809 87.097C31.3809 83.126 28.1618 79.9069 24.1908 79.9069C20.2199 79.9069 17.0007 83.126 17.0007 87.097C17.0007 91.068 20.2199 94.2871 24.1908 94.2871Z" fill="#F2F2F2"/>
<path d="M465.906 153.474H139.518V431.473H465.906V153.474Z" fill="white"/>
<path d="M466.854 432.422H138.569V152.525H466.854V432.422ZM140.466 430.524H464.957V154.423H140.466V430.524Z" fill="#D3D3D3"/>
<path d="M343.51 207.555H261.913V431.473H343.51V207.555Z" fill="#B70606"/>
<path d="M343.51 207.555H261.913V431.473H343.51V207.555Z" fill="#B70606"/>
<path opacity="0.2" d="M140.466 173.873V218.977L465.905 239.814L464.946 184.16L140.466 173.873Z" fill="#2B2B2B"/>
<path d="M484.882 127.856H120.542V207.556H484.882V127.856Z" fill="white"/>
<path d="M485.831 208.504H119.593V126.907H485.831V208.504ZM121.491 206.607H483.933V128.805H121.491V206.607Z" fill="#D3D3D3"/>
<path d="M343.51 120.266H261.913V206.607H343.51V120.266Z" fill="#B70606"/>
<path d="M293.975 44.9842C315.514 76.9129 295.221 128.266 295.221 128.266C295.221 128.266 240.005 127.852 218.466 95.9231C196.927 63.9943 217.22 12.6415 217.22 12.6415C217.22 12.6415 272.436 13.0555 293.975 44.9842Z" fill="#B70606"/>
<path d="M303.858 44.9842C282.319 76.9129 302.613 128.266 302.613 128.266C302.613 128.266 357.829 127.852 379.368 95.9231C400.907 63.9943 380.613 12.6415 380.613 12.6415C380.613 12.6415 325.397 13.0555 303.858 44.9842Z" fill="#B70606"/>
<path d="M245.784 69.0303C250.5 69.0303 254.323 65.2072 254.323 60.4911C254.323 55.775 250.5 51.9519 245.784 51.9519C241.068 51.9519 237.244 55.775 237.244 60.4911C237.244 65.2072 241.068 69.0303 245.784 69.0303Z" fill="#D3D3D3"/>
<path d="M297.019 155.371C301.735 155.371 305.558 151.548 305.558 146.832C305.558 142.116 301.735 138.293 297.019 138.293C292.303 138.293 288.48 142.116 288.48 146.832C288.48 151.548 292.303 155.371 297.019 155.371Z" fill="#D3D3D3"/>
<path d="M297.019 342.285C301.735 342.285 305.558 338.462 305.558 333.746C305.558 329.03 301.735 325.207 297.019 325.207C292.303 325.207 288.48 329.03 288.48 333.746C288.48 338.462 292.303 342.285 297.019 342.285Z" fill="#D3D3D3"/>
<path d="M268.555 97.4944C271.699 97.4944 274.248 94.9457 274.248 91.8016C274.248 88.6576 271.699 86.1088 268.555 86.1088C265.411 86.1088 262.862 88.6576 262.862 91.8016C262.862 94.9457 265.411 97.4944 268.555 97.4944Z" fill="#D3D3D3"/>
<path d="M353.947 49.1056C357.091 49.1056 359.64 46.5568 359.64 43.4128C359.64 40.2687 357.091 37.72 353.947 37.72C350.803 37.72 348.254 40.2687 348.254 43.4128C348.254 46.5568 350.803 49.1056 353.947 49.1056Z" fill="#D3D3D3"/>
<path d="M316.944 182.887C320.088 182.887 322.637 180.338 322.637 177.194C322.637 174.05 320.088 171.501 316.944 171.501C313.8 171.501 311.251 174.05 311.251 177.194C311.251 180.338 313.8 182.887 316.944 182.887Z" fill="#D3D3D3"/>
<path d="M282.787 256.893C285.931 256.893 288.48 254.344 288.48 251.2C288.48 248.056 285.931 245.508 282.787 245.508C279.643 245.508 277.094 248.056 277.094 251.2C277.094 254.344 279.643 256.893 282.787 256.893Z" fill="#D3D3D3"/>
<path d="M312.2 282.511C315.344 282.511 317.892 279.962 317.892 276.818C317.892 273.674 315.344 271.125 312.2 271.125C309.056 271.125 306.507 273.674 306.507 276.818C306.507 279.962 309.056 282.511 312.2 282.511Z" fill="#D3D3D3"/>
<path d="M305.558 389.725C308.702 389.725 311.251 387.177 311.251 384.033C311.251 380.889 308.702 378.34 305.558 378.34C302.414 378.34 299.865 380.889 299.865 384.033C299.865 387.177 302.414 389.725 305.558 389.725Z" fill="#D3D3D3"/>
<path d="M590.398 283.998H416.733V431.917H590.398V283.998Z" fill="white"/>
<path d="M590.903 432.422H416.228V283.493H590.903V432.422ZM417.238 431.412H589.893V284.503H417.238V431.412Z" fill="#D3D3D3"/>
<path d="M525.274 312.774H481.857V431.917H525.274V312.774Z" fill="#B70606"/>
<path d="M525.274 312.774H481.857V431.917H525.274V312.774Z" fill="#B70606"/>
<path opacity="0.2" d="M417.238 294.853V318.852L590.399 329.938L589.888 300.326L417.238 294.853Z" fill="#2B2B2B"/>
<path d="M600.495 270.367H406.636V312.774H600.495V270.367Z" fill="white"/>
<path d="M601 313.279H406.131V269.863H601V313.279ZM407.141 312.269H599.99V270.872H407.141V312.269Z" fill="#D3D3D3"/>
<path d="M525.274 266.329H481.857V312.269H525.274V266.329Z" fill="#B70606"/>
<path d="M498.917 226.273C510.378 243.261 499.58 270.585 499.58 270.585C499.58 270.585 470.2 270.365 458.74 253.376C447.279 236.388 458.077 209.064 458.077 209.064C458.077 209.064 487.456 209.284 498.917 226.273Z" fill="#B70606"/>
<path d="M504.176 226.273C492.715 243.261 503.513 270.585 503.513 270.585C503.513 270.585 532.892 270.365 544.353 253.376C555.814 236.388 545.016 209.064 545.016 209.064C545.016 209.064 515.636 209.284 504.176 226.273Z" fill="#B70606"/>
<path d="M473.275 239.067C475.784 239.067 477.819 237.033 477.819 234.524C477.819 232.014 475.784 229.98 473.275 229.98C470.766 229.98 468.731 232.014 468.731 234.524C468.731 237.033 470.766 239.067 473.275 239.067Z" fill="#D3D3D3"/>
<path d="M500.537 285.008C503.046 285.008 505.08 282.974 505.08 280.464C505.08 277.955 503.046 275.921 500.537 275.921C498.027 275.921 495.993 277.955 495.993 280.464C495.993 282.974 498.027 285.008 500.537 285.008Z" fill="#D3D3D3"/>
<path d="M500.537 384.462C503.046 384.462 505.08 382.427 505.08 379.918C505.08 377.409 503.046 375.375 500.537 375.375C498.027 375.375 495.993 377.409 495.993 379.918C495.993 382.427 498.027 384.462 500.537 384.462Z" fill="#D3D3D3"/>
<path d="M485.391 254.213C487.064 254.213 488.42 252.856 488.42 251.183C488.42 249.511 487.064 248.154 485.391 248.154C483.718 248.154 482.362 249.511 482.362 251.183C482.362 252.856 483.718 254.213 485.391 254.213Z" fill="#D3D3D3"/>
<path d="M530.827 228.466C532.5 228.466 533.856 227.109 533.856 225.437C533.856 223.764 532.5 222.407 530.827 222.407C529.154 222.407 527.798 223.764 527.798 225.437C527.798 227.109 529.154 228.466 530.827 228.466Z" fill="#D3D3D3"/>
<path d="M511.138 299.648C512.811 299.648 514.167 298.292 514.167 296.619C514.167 294.946 512.811 293.59 511.138 293.59C509.465 293.59 508.109 294.946 508.109 296.619C508.109 298.292 509.465 299.648 511.138 299.648Z" fill="#D3D3D3"/>
<path d="M492.964 339.026C494.637 339.026 495.993 337.67 495.993 335.997C495.993 334.324 494.637 332.968 492.964 332.968C491.291 332.968 489.935 334.324 489.935 335.997C489.935 337.67 491.291 339.026 492.964 339.026Z" fill="#D3D3D3"/>
<path d="M508.614 352.657C510.287 352.657 511.643 351.301 511.643 349.628C511.643 347.955 510.287 346.599 508.614 346.599C506.941 346.599 505.585 347.955 505.585 349.628C505.585 351.301 506.941 352.657 508.614 352.657Z" fill="#D3D3D3"/>
<path d="M505.08 409.704C506.753 409.704 508.109 408.348 508.109 406.675C508.109 405.002 506.753 403.646 505.08 403.646C503.407 403.646 502.051 405.002 502.051 406.675C502.051 408.348 503.407 409.704 505.08 409.704Z" fill="#D3D3D3"/>
<path d="M291.577 363.768C293.095 360.567 286.061 354.053 275.866 349.217C265.67 344.382 256.175 343.057 254.657 346.257C253.139 349.458 260.173 355.972 270.368 360.808C280.564 365.643 290.059 366.968 291.577 363.768Z" fill="#2F2E41"/>
<path d="M375.72 396.733C378.436 394.459 374.765 385.602 367.521 376.95C360.277 368.299 352.203 363.129 349.487 365.403C346.771 367.677 350.442 376.534 357.686 385.186C364.929 393.837 373.004 399.007 375.72 396.733Z" fill="#2F2E41"/>
<path d="M319.141 414.835C341.709 414.835 360.004 396.541 360.004 373.973C360.004 351.405 341.709 333.111 319.141 333.111C296.574 333.111 278.279 351.405 278.279 373.973C278.279 396.541 296.574 414.835 319.141 414.835Z" fill="#2F2E41"/>
<path d="M336.437 406.042H324.023V428.284H336.437V406.042Z" fill="#2F2E41"/>
<path d="M311.609 406.042H299.195V428.284H311.609V406.042Z" fill="#2F2E41"/>
<path d="M326.092 432.422C331.805 432.422 336.437 430.685 336.437 428.542C336.437 426.4 331.805 424.663 326.092 424.663C320.379 424.663 315.747 426.4 315.747 428.542C315.747 430.685 320.379 432.422 326.092 432.422Z" fill="#2F2E41"/>
<path d="M301.264 431.904C306.978 431.904 311.609 430.168 311.609 428.025C311.609 425.882 306.978 424.146 301.264 424.146C295.551 424.146 290.919 425.882 290.919 428.025C290.919 430.168 295.551 431.904 301.264 431.904Z" fill="#2F2E41"/>
<path d="M306.311 322.608C309.96 307.914 326.066 299.267 342.285 303.294C358.504 307.321 368.694 322.498 365.045 337.192C361.396 351.886 349.291 351.933 333.072 347.906C316.853 343.879 302.662 337.302 306.311 322.608Z" fill="#E6E6E6"/>
<path d="M313.033 378.974C320.557 378.974 326.656 372.875 326.656 365.351C326.656 357.827 320.557 351.727 313.033 351.727C305.509 351.727 299.409 357.827 299.409 365.351C299.409 372.875 305.509 378.974 313.033 378.974Z" fill="white"/>
<path d="M307.433 365.009C309.942 365.009 311.975 362.975 311.975 360.467C311.975 357.959 309.942 355.926 307.433 355.926C304.925 355.926 302.892 357.959 302.892 360.467C302.892 362.975 304.925 365.009 307.433 365.009Z" fill="black"/>
<path d="M321.579 393.735C321.792 394.908 321.773 396.112 321.521 397.278C321.269 398.444 320.791 399.549 320.112 400.529C319.433 401.51 318.568 402.348 317.566 402.994C316.563 403.64 315.443 404.083 314.27 404.297C313.097 404.51 311.892 404.491 310.727 404.239C309.561 403.987 308.456 403.508 307.475 402.83C306.494 402.151 305.657 401.286 305.01 400.283C304.364 399.281 303.921 398.161 303.708 396.988L303.705 396.97C302.811 392.035 306.627 390.288 311.563 389.394C316.499 388.501 320.685 388.799 321.579 393.735Z" fill="white"/>
<path d="M401.756 66.2254C412.185 61.9177 419.544 55.7715 418.191 52.4975C416.839 49.2234 407.288 50.0613 396.859 54.369C386.43 58.6767 379.071 64.8228 380.424 68.0969C381.776 71.371 391.327 70.5331 401.756 66.2254Z" fill="#2F2E41"/>
<path d="M501.91 94.4277C504.626 92.1537 500.956 83.2966 493.712 74.6448C486.468 65.9931 478.394 60.823 475.678 63.0971C472.962 65.3711 476.633 74.2282 483.876 82.8799C491.12 91.5316 499.194 96.7018 501.91 94.4277Z" fill="#2F2E41"/>
<path d="M445.332 112.53C467.9 112.53 486.194 94.235 486.194 71.6673C486.194 49.0996 467.9 30.8049 445.332 30.8049C422.764 30.8049 404.47 49.0996 404.47 71.6673C404.47 94.235 422.764 112.53 445.332 112.53Z" fill="#2F2E41"/>
<path d="M462.628 103.736H450.214V125.978H462.628V103.736Z" fill="#2F2E41"/>
<path d="M437.8 103.736H425.386V125.978H437.8V103.736Z" fill="#2F2E41"/>
<path d="M452.283 130.116C457.996 130.116 462.628 128.379 462.628 126.237C462.628 124.094 457.996 122.357 452.283 122.357C446.57 122.357 441.938 124.094 441.938 126.237C441.938 128.379 446.57 130.116 452.283 130.116Z" fill="#2F2E41"/>
<path d="M427.455 129.599C433.168 129.599 437.8 127.862 437.8 125.719C437.8 123.577 433.168 121.84 427.455 121.84C421.742 121.84 417.11 123.577 417.11 125.719C417.11 127.862 421.742 129.599 427.455 129.599Z" fill="#2F2E41"/>
<path d="M432.502 20.3021C436.15 5.60801 452.256 -3.03915 468.475 0.988133C484.694 5.01542 494.885 20.1922 491.236 34.8863C487.587 49.5804 475.482 49.6278 459.263 45.6005C443.044 41.5731 428.853 34.9962 432.502 20.3021Z" fill="#B70606"/>
<path d="M439.223 76.6685C446.747 76.6685 452.847 70.5691 452.847 63.045C452.847 55.521 446.747 49.4215 439.223 49.4215C431.699 49.4215 425.6 55.521 425.6 63.045C425.6 70.5691 431.699 76.6685 439.223 76.6685Z" fill="white"/>
<path d="M433.624 69.3445C436.132 69.3445 438.165 67.3113 438.165 64.8033C438.165 62.2953 436.132 60.2621 433.624 60.2621C431.116 60.2621 429.083 62.2953 429.083 64.8033C429.083 67.3113 431.116 69.3445 433.624 69.3445Z" fill="black"/>
<path d="M447.769 91.4288C448.201 93.7986 447.673 96.2428 446.302 98.2236C444.932 100.204 442.83 101.56 440.461 101.991C438.091 102.422 435.647 101.895 433.666 100.524C431.685 99.1533 430.33 97.0519 429.898 94.6821L429.895 94.6645C429.002 89.7287 432.818 87.9821 437.754 87.0886C442.69 86.1951 446.876 86.493 447.769 91.4288Z" fill="white"/>
<path d="M95.7195 414.835C118.287 414.835 136.582 396.54 136.582 373.973C136.582 351.405 118.287 333.11 95.7195 333.11C73.1519 333.11 54.8572 351.405 54.8572 373.973C54.8572 396.54 73.1519 414.835 95.7195 414.835Z" fill="#2F2E41"/>
<path d="M89.5125 406.042H77.0986V428.284H89.5125V406.042Z" fill="#2F2E41"/>
<path d="M114.34 406.042H101.927V428.284H114.34V406.042Z" fill="#2F2E41"/>
<path d="M87.4436 432.422C93.1569 432.422 97.7885 430.685 97.7885 428.542C97.7885 426.4 93.1569 424.663 87.4436 424.663C81.7302 424.663 77.0986 426.4 77.0986 428.542C77.0986 430.685 81.7302 432.422 87.4436 432.422Z" fill="#2F2E41"/>
<path d="M112.271 431.904C117.985 431.904 122.616 430.167 122.616 428.025C122.616 425.882 117.985 424.146 112.271 424.146C106.558 424.146 101.927 425.882 101.927 428.025C101.927 430.167 106.558 431.904 112.271 431.904Z" fill="#2F2E41"/>
<path d="M56.0816 335.972C52.7822 321.196 63.3292 306.265 79.6391 302.623C95.949 298.981 111.845 308.007 115.145 322.784C118.444 337.56 107.635 343.01 91.3253 346.652C75.0155 350.294 59.3811 350.748 56.0816 335.972Z" fill="#B70606"/>
<path d="M139.753 356.117C148.602 347.26 153.522 337.829 150.742 335.051C147.962 332.273 138.534 337.2 129.685 346.056C120.835 354.913 115.915 364.344 118.695 367.122C121.476 369.9 130.903 364.973 139.753 356.117Z" fill="#2F2E41"/>
<path d="M62.783 369.969C65.5632 367.191 60.6432 357.759 51.7937 348.903C42.9442 340.047 33.5165 335.119 30.7362 337.897C27.956 340.675 32.8761 350.107 41.7255 358.963C50.575 367.82 60.0027 372.747 62.783 369.969Z" fill="#2F2E41"/>
<path d="M94.0003 382.148C101.713 382.148 107.966 375.895 107.966 368.182C107.966 360.469 101.713 354.216 94.0003 354.216C86.2873 354.216 80.0347 360.469 80.0347 368.182C80.0347 375.895 86.2873 382.148 94.0003 382.148Z" fill="white"/>
<path d="M94.0002 372.837C96.5712 372.837 98.6554 370.753 98.6554 368.182C98.6554 365.611 96.5712 363.527 94.0002 363.527C91.4292 363.527 89.345 365.611 89.345 368.182C89.345 370.753 91.4292 372.837 94.0002 372.837Z" fill="black"/>
<path d="M105.087 394.011C105.3 395.184 105.281 396.388 105.029 397.554C104.777 398.72 104.298 399.825 103.62 400.806C102.941 401.786 102.076 402.624 101.073 403.27C100.071 403.917 98.9512 404.359 97.7777 404.573C96.6043 404.787 95.4003 404.767 94.2345 404.515C93.0686 404.264 91.9637 403.785 90.983 403.106C90.0022 402.427 89.1647 401.562 88.5183 400.56C87.8719 399.557 87.4292 398.438 87.2156 397.264L87.2124 397.247C86.3189 392.311 90.1351 390.564 95.0709 389.671C100.007 388.777 104.193 389.075 105.087 394.011Z" fill="white"/>
</svg>
