<svg width="24" height="24" viewBox="0 0 24 24" fill="none" xmlns="http://www.w3.org/2000/svg">
<path fill-rule="evenodd" clip-rule="evenodd" d="M7.5 7.25C7.5 6.69188 7.60993 6.13923 7.82351 5.6236C8.03709 5.10796 8.35015 4.63945 8.7448 4.2448C9.13944 3.85015 9.60796 3.53709 10.1236 3.32351C10.6392 3.10993 11.1919 3 11.75 3C12.3081 3 12.8608 3.10993 13.3764 3.32351C13.892 3.53709 14.3606 3.85015 14.7552 4.2448C15.1499 4.63945 15.4629 5.10796 15.6765 5.6236C15.8901 6.13923 16 6.69188 16 7.25C16 8.37717 15.5522 9.45817 14.7552 10.2552C13.9582 11.0522 12.8772 11.5 11.75 11.5C10.6228 11.5 9.54183 11.0522 8.7448 10.2552C7.94777 9.45817 7.5 8.37717 7.5 7.25ZM11.75 4.5C11.0207 4.5 10.3212 4.78973 9.80546 5.30546C9.28973 5.82118 9 6.52065 9 7.25C9 7.97935 9.28973 8.67882 9.80546 9.19454C10.3212 9.71027 11.0207 10 11.75 10C12.4793 10 13.1788 9.71027 13.6945 9.19454C14.2103 8.67882 14.5 7.97935 14.5 7.25C14.5 6.52065 14.2103 5.82118 13.6945 5.30546C13.1788 4.78973 12.4793 4.5 11.75 4.5ZM7.75 14.5C7.15326 14.5 6.58097 14.7371 6.15901 15.159C5.73705 15.581 5.5 16.1533 5.5 16.75V17.938C5.5 17.956 5.513 17.972 5.531 17.975C9.65 18.647 13.851 18.647 17.969 17.975C17.9777 17.9736 17.9857 17.969 17.9914 17.9623C17.9971 17.9555 18.0001 17.9469 18 17.938V16.75C18 16.1533 17.7629 15.581 17.341 15.159C16.919 14.7371 16.3467 14.5 15.75 14.5H15.41C15.3832 14.4998 15.3565 14.5038 15.331 14.512L14.466 14.795C12.7012 15.3712 10.7988 15.3712 9.034 14.795L8.168 14.512C8.14311 14.504 8.11713 14.5 8.091 14.5H7.75ZM4 16.75C4 15.7554 4.39509 14.8016 5.09835 14.0983C5.80161 13.3951 6.75544 13 7.75 13H8.09C8.275 13 8.459 13.03 8.634 13.086L9.5 13.369C10.962 13.8462 12.538 13.8462 14 13.369L14.866 13.086C15.041 13.029 15.225 13 15.409 13H15.75C16.7446 13 17.6984 13.3951 18.4017 14.0983C19.1049 14.8016 19.5 15.7554 19.5 16.75V17.938C19.5 18.692 18.954 19.334 18.21 19.455C13.9317 20.1534 9.56835 20.1534 5.29 19.455C4.92992 19.3964 4.60244 19.2116 4.36611 18.9337C4.12978 18.6557 4.00001 18.3028 4 17.938V16.75Z" fill="black"/>
</svg>
