<svg width="394" height="69" viewBox="0 0 394 69" fill="none" xmlns="http://www.w3.org/2000/svg">
<path d="M60.9375 45.1562C61.1875 45.0312 61.4167 44.9688 61.625 44.9688C61.8542 44.9688 62.0312 45.0521 62.1562 45.2188C62.2812 45.3646 62.3438 45.5521 62.3438 45.7812C62.3438 46.0729 62.2292 46.4062 62 46.7812C61.7708 47.1354 61.4167 47.4583 60.9375 47.75C59.4375 48.625 57.9062 49.4167 56.3438 50.125C54.8021 50.8333 53.25 51.5104 51.6875 52.1562C50.4375 52.7188 49.1146 53.2708 47.7188 53.8125C46.3229 54.3333 44.8958 54.8021 43.4375 55.2188C42 55.6146 40.5417 55.9375 39.0625 56.1875C37.6042 56.4375 36.1875 56.5625 34.8125 56.5625C34.25 56.5625 33.7083 56.5417 33.1875 56.5C32.6667 56.4375 32.1562 56.3438 31.6562 56.2188C31.3438 56.9688 30.9583 57.8125 30.5 58.75C30.0625 59.7083 29.6042 60.6458 29.125 61.5625C28.6458 62.5 28.1875 63.3646 27.75 64.1562C27.3125 64.9688 26.9688 65.5938 26.7188 66.0312C26.3438 66.9062 25.75 67.5417 24.9375 67.9375C24.1458 68.3333 23.3021 68.5312 22.4062 68.5312C21.9479 68.5312 21.5 68.4583 21.0625 68.3125C20.6458 68.1875 20.2708 68 19.9375 67.75C19.6042 67.5 19.3333 67.1979 19.125 66.8438C18.9375 66.4896 18.8438 66.0833 18.8438 65.625C18.8438 65.3542 18.8854 65.1458 18.9688 65C19.2188 64.4375 19.5833 63.6562 20.0625 62.6562C20.5417 61.6562 21.0625 60.5625 21.625 59.375C22.1875 58.1875 22.75 56.9688 23.3125 55.7188C23.875 54.4479 24.3646 53.2812 24.7812 52.2188C24.6146 52.0521 24.5104 51.8958 24.4688 51.75C24.4479 51.5833 24.4375 51.4167 24.4375 51.25C24.4375 50.9375 24.5521 50.625 24.7812 50.3125C25.0104 50 25.3854 49.6667 25.9062 49.3125C26.7396 47.6458 27.5729 46.0104 28.4062 44.4062C29.2396 42.7812 30.0104 41.2708 30.7188 39.875C31.4271 38.4792 32.0417 37.2292 32.5625 36.125C33.1042 35.0208 33.4896 34.1562 33.7188 33.5312C32.3646 33.5104 31.125 33.2917 30 32.875C28.875 32.4375 27.9062 31.8542 27.0938 31.125C26.3021 30.375 25.6771 29.4896 25.2188 28.4688C24.7812 27.4479 24.5625 26.3229 24.5625 25.0938C24.5625 23.4479 24.8854 21.9479 25.5312 20.5938C26.1979 19.2396 27.0625 18.0833 28.125 17.125C29.1875 16.1667 30.3854 15.4271 31.7188 14.9062C33.0729 14.3646 34.4271 14.0938 35.7812 14.0938C37.5938 14.0938 39.0625 14.3958 40.1875 15C41.3125 15.5833 42.1875 16.3542 42.8125 17.3125C43.4583 18.2708 43.8854 19.3542 44.0938 20.5625C44.3229 21.7708 44.4375 22.9792 44.4375 24.1875C44.4375 24.9792 44.3229 25.75 44.0938 26.5C43.8646 27.2292 43.6146 27.9167 43.3438 28.5625C43.0938 29.1875 42.8542 29.7604 42.625 30.2812C42.3958 30.7812 42.2812 31.1979 42.2812 31.5312V31.6875C43.2812 31.5625 44.5312 31.4375 46.0312 31.3125C47.5521 31.1875 49.2188 31.0208 51.0312 30.8125C52.8438 30.6042 54.7292 30.3333 56.6875 30C58.6667 29.6667 60.6146 29.2396 62.5312 28.7188C64.4479 28.1979 66.2708 27.5625 68 26.8125C69.7292 26.0625 71.25 25.1562 72.5625 24.0938C73.875 23.0312 74.9167 21.7917 75.6875 20.375C76.4583 18.9583 76.8438 17.3333 76.8438 15.5C76.8438 14.1667 76.3021 12.9375 75.2188 11.8125C74.1354 10.6667 72.6875 9.63542 70.875 8.71875C69.0625 7.80208 66.9688 7 64.5938 6.3125C62.2396 5.625 59.7917 5.05208 57.25 4.59375C54.7292 4.13542 52.1979 3.79167 49.6562 3.5625C47.1354 3.3125 44.7917 3.1875 42.625 3.1875C40.1875 3.1875 37.5938 3.23958 34.8438 3.34375C32.0938 3.42708 29.3646 3.625 26.6562 3.9375C23.9688 4.25 21.3854 4.71875 18.9062 5.34375C16.4479 5.96875 14.2708 6.82292 12.375 7.90625C10.5 8.96875 9 10.2917 7.875 11.875C6.75 13.4583 6.1875 15.375 6.1875 17.625C6.1875 18.2292 6.47917 18.6771 7.0625 18.9688C7.64583 19.2396 8.375 19.4375 9.25 19.5625C10.125 19.6875 11.0729 19.7917 12.0938 19.875C13.1146 19.9375 14.0625 20.0729 14.9375 20.2812C15.8125 20.4688 16.5417 20.7708 17.125 21.1875C17.7083 21.6042 18 22.2188 18 23.0312C18 23.3854 17.6146 23.6562 16.8438 23.8438C16.0729 24.0104 15.0938 24.0938 13.9062 24.0938C13.0521 24.0938 12.1354 24.0417 11.1562 23.9375C10.1771 23.8333 9.19792 23.6771 8.21875 23.4688C7.23958 23.2396 6.29167 22.9583 5.375 22.625C4.47917 22.2917 3.6875 21.8958 3 21.4375C2.3125 20.9583 1.76042 20.4167 1.34375 19.8125C0.927083 19.2083 0.71875 18.5312 0.71875 17.7812C0.71875 15.8646 1.11458 14.1667 1.90625 12.6875C2.71875 11.1875 3.8125 9.86458 5.1875 8.71875C6.58333 7.55208 8.21875 6.5625 10.0938 5.75C11.9688 4.91667 13.9688 4.21875 16.0938 3.65625C18.2396 3.07292 20.4583 2.60417 22.75 2.25C25.0625 1.89583 27.3438 1.625 29.5938 1.4375C31.8646 1.22917 34.0417 1.09375 36.125 1.03125C38.2292 0.96875 40.1458 0.9375 41.875 0.9375C43.875 0.9375 46 0.989583 48.25 1.09375C50.5208 1.17708 52.8229 1.33333 55.1562 1.5625C57.4896 1.79167 59.8021 2.09375 62.0938 2.46875C64.4062 2.84375 66.6146 3.3125 68.7188 3.875C70.8229 4.41667 72.7708 5.0625 74.5625 5.8125C76.375 6.54167 77.9375 7.38542 79.25 8.34375C80.5833 9.30208 81.625 10.3854 82.375 11.5938C83.125 12.8021 83.5 14.1458 83.5 15.625C83.5 17.375 83.1042 18.9688 82.3125 20.4062C81.5208 21.8229 80.4375 23.1042 79.0625 24.25C77.7083 25.3958 76.0938 26.4167 74.2188 27.3125C72.3646 28.1875 70.3646 28.9583 68.2188 29.625C66.0729 30.2917 63.8229 30.8646 61.4688 31.3438C59.1354 31.8229 56.8021 32.2292 54.4688 32.5625C52.1562 32.8958 49.8958 33.1667 47.6875 33.375C45.4792 33.5833 43.4271 33.75 41.5312 33.875C41.1354 34.3542 40.6458 35.1771 40.0625 36.3438C39.5 37.5104 38.8646 38.8958 38.1562 40.5C37.4479 42.0833 36.6875 43.8229 35.875 45.7188C35.0625 47.5938 34.2292 49.4792 33.375 51.375C33.9375 52.0625 34.6146 52.5625 35.4062 52.875C36.2188 53.1667 37.1042 53.3125 38.0625 53.3125C39.1667 53.3125 40.3229 53.1979 41.5312 52.9688C42.7604 52.7396 43.9896 52.4375 45.2188 52.0625C46.4688 51.6667 47.6979 51.2292 48.9062 50.75C50.1354 50.25 51.3125 49.75 52.4375 49.25C53.8333 48.6458 55.2396 48 56.6562 47.3125C58.0729 46.6042 59.5 45.8854 60.9375 45.1562ZM34.4688 31.625C34.9062 30.6875 35.3958 29.6979 35.9375 28.6562C36.5 27.5938 37.0208 26.5312 37.5 25.4688C38 24.4062 38.4167 23.375 38.75 22.375C39.0833 21.375 39.25 20.4479 39.25 19.5938C39.25 18.4271 38.9583 17.4896 38.375 16.7812C37.8125 16.0521 36.8021 15.6875 35.3438 15.6875C34.1146 15.6875 32.9375 15.8958 31.8125 16.3125C30.7083 16.7292 29.7292 17.3333 28.875 18.125C28.0417 18.8958 27.375 19.8333 26.875 20.9375C26.3958 22.0417 26.1562 23.2812 26.1562 24.6562C26.1562 25.7812 26.3646 26.7812 26.7812 27.6562C27.1979 28.5104 27.7708 29.2396 28.5 29.8438C29.2292 30.4271 30.1042 30.875 31.125 31.1875C32.1458 31.4792 33.2604 31.625 34.4688 31.625ZM60.9688 47.75C60.8229 47.8333 60.6875 47.875 60.5625 47.875C60.3542 47.875 60.1979 47.7917 60.0938 47.625C59.9896 47.4375 59.9375 47.2083 59.9375 46.9375C59.9375 46.6458 60.0104 46.3333 60.1562 46C60.3021 45.6667 60.5729 45.3854 60.9688 45.1562L72.5312 38.3438C73.9688 37.5104 75.5 36.7917 77.125 36.1875C78.75 35.5833 80.3958 35.0938 82.0625 34.7188C83.75 34.3229 85.4167 34.0417 87.0625 33.875C88.7083 33.6875 90.2604 33.5938 91.7188 33.5938C92.5521 33.5938 93.3333 33.6562 94.0625 33.7812C94.7917 33.8854 95.4167 34.0521 95.9375 34.2812C96.4792 34.4896 96.8958 34.75 97.1875 35.0625C97.5 35.375 97.6562 35.7292 97.6562 36.125C97.6562 36.4167 97.5521 36.625 97.3438 36.75C97.1354 36.875 96.8854 36.9688 96.5938 37.0312C96.3229 37.0729 96.0312 37.1042 95.7188 37.125C95.4271 37.1458 95.1979 37.1979 95.0312 37.2812C94.9062 37.6771 94.7083 38.2917 94.4375 39.125C94.1667 39.9375 93.8958 40.7812 93.625 41.6562C93.3542 42.5104 93.1042 43.2812 92.875 43.9688C92.6667 44.6354 92.5521 45.0208 92.5312 45.125C92.2604 46 91.8854 47.1146 91.4062 48.4688C90.9479 49.8021 90.4375 51.5938 89.875 53.8438C89.8958 53.8438 90.125 53.7292 90.5625 53.5C91.0208 53.25 91.6042 52.9271 92.3125 52.5312C93.0417 52.1354 93.8646 51.6771 94.7812 51.1562C95.6979 50.6354 96.6458 50.1042 97.625 49.5625L105.094 45.1562C105.385 44.9896 105.635 44.9062 105.844 44.9062C106.073 44.9062 106.25 44.9896 106.375 45.1562C106.5 45.3021 106.562 45.4896 106.562 45.7188C106.562 46.0104 106.448 46.3542 106.219 46.75C105.99 47.125 105.615 47.4583 105.094 47.75L88.4688 57.5C88.0521 57.75 87.6667 57.9271 87.3125 58.0312C86.9583 58.1354 86.6354 58.1875 86.3438 58.1875C85.9271 58.1875 85.5729 58.0938 85.2812 57.9062C84.9896 57.7188 84.75 57.4583 84.5625 57.125C84.375 56.7917 84.2292 56.4167 84.125 56C84.0417 55.5625 84 55.1042 84 54.625C84 54.1042 84.0521 53.5833 84.1562 53.0625C84.2604 52.5417 84.3958 52.0417 84.5625 51.5625C83.9583 52.75 83.25 53.7812 82.4375 54.6562C81.6458 55.5312 80.7917 56.2708 79.875 56.875C78.9792 57.4583 78.0521 57.8958 77.0938 58.1875C76.1354 58.4792 75.1979 58.625 74.2812 58.625C73.3646 58.625 72.5 58.4792 71.6875 58.1875C70.875 57.8958 70.1562 57.4688 69.5312 56.9062C68.9271 56.3229 68.4479 55.6042 68.0938 54.75C67.7396 53.8958 67.5625 52.9062 67.5625 51.7812C67.5625 51.1146 67.625 50.375 67.75 49.5625C67.8958 48.75 68.0833 47.9271 68.3125 47.0938C68.5417 46.2604 68.8021 45.4479 69.0938 44.6562C69.3854 43.8438 69.6875 43.1042 70 42.4375L60.9688 47.75ZM89.375 36.25C87.7083 36.25 86.1146 36.5312 84.5938 37.0938C83.0729 37.6562 81.6562 38.3958 80.3438 39.3125C79.0521 40.2292 77.875 41.2812 76.8125 42.4688C75.7708 43.6354 74.875 44.8438 74.125 46.0938C73.3958 47.3229 72.8229 48.5417 72.4062 49.75C72.0104 50.9583 71.8125 52.0417 71.8125 53C71.8125 54.0625 72.0417 54.9271 72.5 55.5938C72.9792 56.2396 73.75 56.5625 74.8125 56.5625C75.4375 56.5625 76.1146 56.375 76.8438 56C77.5938 55.6042 78.3438 55.0938 79.0938 54.4688C79.8646 53.8229 80.6146 53.1042 81.3438 52.3125C82.0938 51.5 82.7812 50.6875 83.4062 49.875C84.0312 49.0417 84.5729 48.2396 85.0312 47.4688C85.5104 46.6771 85.8542 45.9896 86.0625 45.4062L89.375 36.25ZM140.125 35.4688C140.125 35.9896 140.031 36.6042 139.844 37.3125C139.656 38 139.417 38.7396 139.125 39.5312C138.833 40.3021 138.521 41.0938 138.188 41.9062C137.854 42.7188 137.542 43.5104 137.25 44.2812C136.958 45.0312 136.719 45.7396 136.531 46.4062C136.344 47.0729 136.25 47.6354 136.25 48.0938C136.25 48.4896 136.333 48.8021 136.5 49.0312C136.688 49.2604 136.979 49.375 137.375 49.375C137.667 49.375 138.073 49.2708 138.594 49.0625C139.135 48.8333 139.76 48.5312 140.469 48.1562C141.198 47.7604 141.99 47.3125 142.844 46.8125C143.719 46.2917 144.635 45.7396 145.594 45.1562C145.802 45.0312 146.01 44.9688 146.219 44.9688C146.448 44.9688 146.646 45.0521 146.812 45.2188C147 45.3854 147.094 45.5938 147.094 45.8438C147.094 46.1146 146.979 46.4062 146.75 46.7188C146.521 47.0104 146.135 47.3542 145.594 47.75C142.885 49.7708 140.406 51.3333 138.156 52.4375C135.927 53.5417 134.146 54.0938 132.812 54.0938C131.729 54.0938 130.875 53.9271 130.25 53.5938C129.625 53.2604 129.312 52.7396 129.312 52.0312C129.312 51.3646 129.594 50.5208 130.156 49.5C130.74 48.4792 131.688 47.2708 133 45.875C133.5 45.0417 133.896 44.1354 134.188 43.1562C134.479 42.1562 134.688 41.1875 134.812 40.25C134.958 39.2917 135.052 38.4167 135.094 37.625C135.135 36.8125 135.156 36.1667 135.156 35.6875C135.156 34.8958 135.021 34.2917 134.75 33.875C134.5 33.4375 134.073 33.2188 133.469 33.2188C132.802 33.2188 132.146 33.5208 131.5 34.125C130.875 34.7083 130.24 35.5208 129.594 36.5625C128.969 37.6042 128.344 38.8333 127.719 40.25C127.094 41.6667 126.448 43.1979 125.781 44.8438C125.135 46.4896 124.469 48.2083 123.781 50C123.094 51.7917 122.375 53.5938 121.625 55.4062C121.5 55.7604 121.344 56.125 121.156 56.5C120.969 56.875 120.75 57.2292 120.5 57.5625C120.271 57.875 120 58.1354 119.688 58.3438C119.396 58.5521 119.083 58.6562 118.75 58.6562C117.958 58.6562 117.365 58.4792 116.969 58.125C116.573 57.7708 116.375 57.1875 116.375 56.375C116.375 56.1458 116.385 55.9062 116.406 55.6562C116.448 55.4062 116.552 55.1146 116.719 54.7812L122.75 42.6875C123.542 40.6458 124.385 38.9583 125.281 37.625C126.198 36.2917 127.021 35.2188 127.75 34.4062C126.042 35.4271 124.333 36.4479 122.625 37.4688C120.917 38.4896 119.271 39.4792 117.688 40.4375C116.104 41.375 114.604 42.2708 113.188 43.125C111.792 43.9583 110.542 44.6979 109.438 45.3438C108.333 45.9896 107.406 46.5208 106.656 46.9375C105.906 47.3542 105.385 47.625 105.094 47.75C104.927 47.8542 104.75 47.9062 104.562 47.9062C104.333 47.9062 104.146 47.8229 104 47.6562C103.833 47.4896 103.75 47.2708 103.75 47C103.75 46.7083 103.854 46.3958 104.062 46.0625C104.25 45.7083 104.594 45.3854 105.094 45.0938L113.438 40.2188C114.521 39.5729 115.615 38.9271 116.719 38.2812C117.823 37.6146 118.854 37 119.812 36.4375C120.792 35.875 121.656 35.375 122.406 34.9375C123.156 34.5 123.729 34.1667 124.125 33.9375C125.125 33.3542 126.094 32.8542 127.031 32.4375C127.99 32.0208 128.938 31.6771 129.875 31.4062C130.812 31.1354 131.76 30.9271 132.719 30.7812C133.698 30.6354 134.719 30.5312 135.781 30.4688C136.24 30.4688 136.719 30.6146 137.219 30.9062C137.74 31.1771 138.208 31.5521 138.625 32.0312C139.062 32.4896 139.417 33.0208 139.688 33.625C139.979 34.2083 140.125 34.8229 140.125 35.4688ZM145.594 47.75C145.448 47.8333 145.312 47.875 145.188 47.875C144.979 47.875 144.823 47.7917 144.719 47.625C144.615 47.4375 144.562 47.2083 144.562 46.9375C144.562 46.6458 144.635 46.3333 144.781 46C144.927 45.6667 145.198 45.3854 145.594 45.1562L157.156 38.3438C158.594 37.5104 160.125 36.7917 161.75 36.1875C163.375 35.5833 165.021 35.0938 166.688 34.7188C168.375 34.3229 170.042 34.0417 171.688 33.875C173.333 33.6875 174.885 33.5938 176.344 33.5938C177.177 33.5938 177.958 33.6562 178.688 33.7812C179.417 33.8854 180.042 34.0521 180.562 34.2812C181.104 34.4896 181.521 34.75 181.812 35.0625C182.125 35.375 182.281 35.7292 182.281 36.125C182.281 36.4167 182.177 36.625 181.969 36.75C181.76 36.875 181.51 36.9688 181.219 37.0312C180.948 37.0729 180.656 37.1042 180.344 37.125C180.052 37.1458 179.823 37.1979 179.656 37.2812C179.531 37.6771 179.333 38.2917 179.062 39.125C178.792 39.9375 178.521 40.7812 178.25 41.6562C177.979 42.5104 177.729 43.2812 177.5 43.9688C177.292 44.6354 177.177 45.0208 177.156 45.125C176.885 46 176.51 47.1146 176.031 48.4688C175.573 49.8021 175.062 51.5938 174.5 53.8438C174.521 53.8438 174.75 53.7292 175.188 53.5C175.646 53.25 176.229 52.9271 176.938 52.5312C177.667 52.1354 178.49 51.6771 179.406 51.1562C180.323 50.6354 181.271 50.1042 182.25 49.5625L189.719 45.1562C190.01 44.9896 190.26 44.9062 190.469 44.9062C190.698 44.9062 190.875 44.9896 191 45.1562C191.125 45.3021 191.188 45.4896 191.188 45.7188C191.188 46.0104 191.073 46.3542 190.844 46.75C190.615 47.125 190.24 47.4583 189.719 47.75L173.094 57.5C172.677 57.75 172.292 57.9271 171.938 58.0312C171.583 58.1354 171.26 58.1875 170.969 58.1875C170.552 58.1875 170.198 58.0938 169.906 57.9062C169.615 57.7188 169.375 57.4583 169.188 57.125C169 56.7917 168.854 56.4167 168.75 56C168.667 55.5625 168.625 55.1042 168.625 54.625C168.625 54.1042 168.677 53.5833 168.781 53.0625C168.885 52.5417 169.021 52.0417 169.188 51.5625C168.583 52.75 167.875 53.7812 167.062 54.6562C166.271 55.5312 165.417 56.2708 164.5 56.875C163.604 57.4583 162.677 57.8958 161.719 58.1875C160.76 58.4792 159.823 58.625 158.906 58.625C157.99 58.625 157.125 58.4792 156.312 58.1875C155.5 57.8958 154.781 57.4688 154.156 56.9062C153.552 56.3229 153.073 55.6042 152.719 54.75C152.365 53.8958 152.188 52.9062 152.188 51.7812C152.188 51.1146 152.25 50.375 152.375 49.5625C152.521 48.75 152.708 47.9271 152.938 47.0938C153.167 46.2604 153.427 45.4479 153.719 44.6562C154.01 43.8438 154.312 43.1042 154.625 42.4375L145.594 47.75ZM174 36.25C172.333 36.25 170.74 36.5312 169.219 37.0938C167.698 37.6562 166.281 38.3958 164.969 39.3125C163.677 40.2292 162.5 41.2812 161.438 42.4688C160.396 43.6354 159.5 44.8438 158.75 46.0938C158.021 47.3229 157.448 48.5417 157.031 49.75C156.635 50.9583 156.438 52.0417 156.438 53C156.438 54.0625 156.667 54.9271 157.125 55.5938C157.604 56.2396 158.375 56.5625 159.438 56.5625C160.062 56.5625 160.74 56.375 161.469 56C162.219 55.6042 162.969 55.0938 163.719 54.4688C164.49 53.8229 165.24 53.1042 165.969 52.3125C166.719 51.5 167.406 50.6875 168.031 49.875C168.656 49.0417 169.198 48.2396 169.656 47.4688C170.135 46.6771 170.479 45.9896 170.688 45.4062L174 36.25ZM218.312 55.0312C218.104 55.0729 217.906 55.1042 217.719 55.125C217.552 55.125 217.385 55.1354 217.219 55.1562C215.844 56.2812 214.219 57.1562 212.344 57.7812C210.469 58.4062 208.365 58.7188 206.031 58.7188C204.594 58.7188 203.375 58.5938 202.375 58.3438C201.396 58.0938 200.604 57.7292 200 57.25C199.396 56.7708 198.958 56.1875 198.688 55.5C198.417 54.7917 198.281 53.9792 198.281 53.0625C198.281 51.2917 198.552 49.3854 199.094 47.3438C199.635 45.3021 200.375 43.1771 201.312 40.9688L189.719 47.75C189.552 47.8542 189.375 47.9062 189.188 47.9062C188.979 47.9062 188.823 47.8229 188.719 47.6562C188.594 47.4896 188.531 47.2812 188.531 47.0312C188.531 46.7396 188.625 46.4167 188.812 46.0625C189 45.7083 189.302 45.4062 189.719 45.1562L203 37.3125C204.062 35.2083 205.24 33.125 206.531 31.0625C207.823 29 209.167 27.0417 210.562 25.1875C211.958 23.3125 213.375 21.5729 214.812 19.9688C216.271 18.3646 217.677 16.9792 219.031 15.8125C220.406 14.6458 221.698 13.7292 222.906 13.0625C224.135 12.3958 225.229 12.0625 226.188 12.0625C227.812 12.0625 228.99 12.3333 229.719 12.875C230.448 13.4167 230.812 14.1562 230.812 15.0938C230.812 15.9271 230.552 16.8854 230.031 17.9688C229.51 19.0312 228.771 20.1771 227.812 21.4062C226.875 22.6146 225.75 23.875 224.438 25.1875C223.146 26.4792 221.719 27.7604 220.156 29.0312C218.615 30.2812 216.958 31.5 215.188 32.6875C213.438 33.875 211.646 34.9583 209.812 35.9375C210.208 35.8333 210.594 35.7708 210.969 35.75C211.344 35.7083 211.719 35.6875 212.094 35.6875C213.49 35.6875 214.812 35.9479 216.062 36.4688C217.333 36.9688 218.438 37.625 219.375 38.4375C220.333 39.2292 221.094 40.1042 221.656 41.0625C222.219 42.0208 222.5 42.9479 222.5 43.8438C222.5 45.4062 222.292 46.8958 221.875 48.3125C221.458 49.7292 220.812 51.0417 219.938 52.25L231.938 45.1562C232.146 45.0938 232.344 45.0625 232.531 45.0625C233.031 45.0625 233.281 45.3125 233.281 45.8125C233.281 46.5833 232.833 47.2292 231.938 47.75C231.479 48.0208 230.875 48.3854 230.125 48.8438C229.396 49.2812 228.594 49.7604 227.719 50.2812C226.844 50.8021 225.938 51.3333 225 51.875C224.062 52.3958 223.167 52.8854 222.312 53.3438C221.458 53.7812 220.677 54.1562 219.969 54.4688C219.26 54.7812 218.708 54.9688 218.312 55.0312ZM217.812 46.9375C217.812 45.7708 217.479 44.75 216.812 43.875C216.167 42.9792 215.312 42.1979 214.25 41.5312C213.188 40.8438 211.99 40.25 210.656 39.75C209.323 39.25 207.969 38.7917 206.594 38.375C205.531 40.8333 204.688 43.2396 204.062 45.5938C203.458 47.9479 203.156 50.2292 203.156 52.4375C203.156 53.5 203.385 54.3646 203.844 55.0312C204.323 55.6979 205.073 56.0312 206.094 56.0312C207.99 56.0312 209.583 55.875 210.875 55.5625C212.188 55.2292 213.292 54.7812 214.188 54.2188C213.646 53.7604 213.25 53.2188 213 52.5938C212.75 51.9479 212.625 51.3229 212.625 50.7188C212.625 50.0312 212.854 49.5208 213.312 49.1875C213.771 48.8333 214.323 48.6562 214.969 48.6562C215.385 48.6562 215.812 48.7396 216.25 48.9062C216.708 49.0521 217.125 49.2708 217.5 49.5625C217.708 48.8125 217.812 47.9375 217.812 46.9375ZM226.469 13.9062C225.844 13.9062 225.104 14.1562 224.25 14.6562C223.396 15.1354 222.469 15.8229 221.469 16.7188C220.49 17.5938 219.469 18.6354 218.406 19.8438C217.344 21.0521 216.292 22.3854 215.25 23.8438C214.229 25.2812 213.24 26.8125 212.281 28.4375C211.323 30.0417 210.458 31.6875 209.688 33.375C210.542 32.875 211.594 32.1771 212.844 31.2812C214.094 30.3854 215.417 29.3854 216.812 28.2812C218.208 27.1562 219.594 25.9792 220.969 24.75C222.365 23.5 223.615 22.2917 224.719 21.125C225.844 19.9583 226.75 18.875 227.438 17.875C228.125 16.875 228.469 16.0417 228.469 15.375C228.469 14.9167 228.312 14.5625 228 14.3125C227.688 14.0417 227.177 13.9062 226.469 13.9062ZM231.969 47.75C231.76 47.8958 231.521 47.9688 231.25 47.9688C230.979 47.9688 230.76 47.8958 230.594 47.75C230.427 47.5833 230.344 47.375 230.344 47.125C230.344 46.8542 230.469 46.5521 230.719 46.2188C230.948 45.8646 231.365 45.5104 231.969 45.1562L239.875 40.5C240.458 38.8542 241.208 37.4375 242.125 36.25C243.062 35.0417 244.083 34.0521 245.188 33.2812C246.312 32.4896 247.479 31.9062 248.688 31.5312C249.917 31.1354 251.104 30.9375 252.25 30.9375C253.417 30.9375 254.375 31.25 255.125 31.875C255.896 32.4792 256.281 33.4271 256.281 34.7188C256.281 35.5104 255.99 36.3438 255.406 37.2188C254.844 38.0729 254.062 38.9271 253.062 39.7812C252.083 40.6146 250.927 41.3958 249.594 42.125C248.26 42.8542 246.844 43.4688 245.344 43.9688C245.344 44.9688 245.323 45.9167 245.281 46.8125C245.26 47.7083 245.25 48.5521 245.25 49.3438C245.25 50.0104 245.271 50.625 245.312 51.1875C245.354 51.7292 245.438 52.1979 245.562 52.5938C245.708 52.9688 245.896 53.2708 246.125 53.5C246.375 53.7083 246.688 53.8125 247.062 53.8125C247.646 53.8125 248.344 53.5833 249.156 53.125C249.99 52.6458 251.031 52.0417 252.281 51.3125C253.406 50.6458 254.844 49.8125 256.594 48.8125C258.344 47.8125 260.479 46.5938 263 45.1562C263.083 45.0938 263.198 45.0625 263.344 45.0625C263.573 45.0625 263.771 45.1667 263.938 45.375C264.125 45.5625 264.219 45.8021 264.219 46.0938C264.219 46.3438 264.125 46.6146 263.938 46.9062C263.771 47.1979 263.458 47.4792 263 47.75C260.938 48.9792 258.938 50.2292 257 51.5C255.062 52.75 253.229 53.8958 251.5 54.9375C249.792 55.9583 248.208 56.8021 246.75 57.4688C245.292 58.1146 244.021 58.4375 242.938 58.4375C242.208 58.4375 241.562 58.2812 241 57.9688C240.458 57.6562 239.99 57.1562 239.594 56.4688C239.219 55.7812 238.927 54.8854 238.719 53.7812C238.531 52.6562 238.438 51.2917 238.438 49.6875C238.438 49.4375 238.448 49.0417 238.469 48.5C238.51 47.9375 238.562 47.3438 238.625 46.7188C238.708 46.0729 238.802 45.4479 238.906 44.8438C239.01 44.2396 239.135 43.7708 239.281 43.4375C239.135 43.5208 238.917 43.6458 238.625 43.8125C238.354 43.9792 238.031 44.1771 237.656 44.4062C237.281 44.6146 236.885 44.8438 236.469 45.0938C236.052 45.3438 235.635 45.5938 235.219 45.8438L231.969 47.75ZM252.906 34.9688C252.948 34.8438 252.969 34.7083 252.969 34.5625C252.969 34.0417 252.875 33.6562 252.688 33.4062C252.521 33.1562 252.229 33.0312 251.812 33.0312C251.333 33.0312 250.781 33.2188 250.156 33.5938C249.531 33.9479 248.917 34.4792 248.312 35.1875C247.729 35.8958 247.198 36.7812 246.719 37.8438C246.26 38.9062 245.948 40.125 245.781 41.5C246.635 41.0625 247.469 40.5625 248.281 40C249.094 39.4167 249.823 38.8333 250.469 38.25C251.135 37.6458 251.677 37.0625 252.094 36.5C252.531 35.9167 252.802 35.4062 252.906 34.9688ZM255.125 6.03125C255.188 6.03125 255.375 6.03125 255.688 6.03125C256 6.03125 256.375 6.05208 256.812 6.09375C257.25 6.13542 257.719 6.19792 258.219 6.28125C258.719 6.36458 259.177 6.5 259.594 6.6875C260.01 6.85417 260.365 7.07292 260.656 7.34375C260.948 7.61458 261.104 7.94792 261.125 8.34375L247.375 26.5312L246.531 27.2812C246.156 27.2812 245.865 27.1771 245.656 26.9688C245.448 26.7604 245.292 26.5417 245.188 26.3125L255.125 6.03125ZM300.812 37.75C300.021 37.75 299.031 37.9792 297.844 38.4375C296.656 38.875 295.354 39.4896 293.938 40.2812C292.521 41.0521 291.042 41.9688 289.5 43.0312C287.979 44.0938 286.479 45.25 285 46.5C283.542 47.75 282.146 49.0729 280.812 50.4688C279.5 51.8438 278.354 53.2292 277.375 54.625C277.271 54.7292 277.219 54.9688 277.219 55.3438C277.219 55.6979 277.156 56.0729 277.031 56.4688C276.927 56.8646 276.708 57.2188 276.375 57.5312C276.042 57.8438 275.49 58 274.719 58C274.177 58 273.75 57.9375 273.438 57.8125C273.146 57.6875 272.917 57.5208 272.75 57.3125C272.604 57.0833 272.51 56.8229 272.469 56.5312C272.427 56.2188 272.406 55.875 272.406 55.5C272.406 55.125 272.51 54.5729 272.719 53.8438C272.927 53.1146 273.198 52.2708 273.531 51.3125C273.865 50.3542 274.24 49.3229 274.656 48.2188C275.073 47.1146 275.49 46.0104 275.906 44.9062C276.344 43.8021 276.75 42.7292 277.125 41.6875C277.521 40.6458 277.854 39.7083 278.125 38.875L263.031 47.75C262.927 47.7708 262.844 47.7917 262.781 47.8125C262.698 47.8125 262.635 47.8125 262.594 47.8125C262.302 47.8125 262.094 47.7396 261.969 47.5938C261.823 47.4271 261.75 47.2292 261.75 47C261.75 46.7083 261.865 46.3958 262.094 46.0625C262.302 45.7083 262.615 45.4062 263.031 45.1562C266.156 43.3021 268.729 41.7812 270.75 40.5938C272.792 39.3854 274.427 38.4167 275.656 37.6875C276.885 36.9583 277.802 36.4167 278.406 36.0625C279.031 35.7083 279.5 35.4479 279.812 35.2812C280.104 35.1146 280.365 35 280.594 34.9375C280.844 34.875 281.115 34.8438 281.406 34.8438C282.01 34.8438 282.5 35.0208 282.875 35.375C283.271 35.7292 283.469 36.125 283.469 36.5625C283.469 37 283.333 37.6042 283.062 38.375C282.792 39.125 282.458 39.9479 282.062 40.8438C281.667 41.7396 281.26 42.6562 280.844 43.5938C280.427 44.5104 280.073 45.3646 279.781 46.1562C279.656 46.4688 279.552 46.7292 279.469 46.9375C279.406 47.125 279.323 47.3438 279.219 47.5938C279.135 47.8438 279.01 48.1667 278.844 48.5625C278.677 48.9375 278.438 49.4688 278.125 50.1562C279 49.0312 280.021 47.8542 281.188 46.625C282.375 45.3958 283.656 44.1979 285.031 43.0312C286.427 41.8438 287.906 40.7188 289.469 39.6562C291.052 38.5938 292.677 37.6667 294.344 36.875C296.031 36.0625 297.75 35.4271 299.5 34.9688C301.25 34.4896 302.99 34.25 304.719 34.25C305.781 34.25 306.51 34.4792 306.906 34.9375C307.323 35.375 307.531 35.9792 307.531 36.75C307.531 37.375 307.417 38.1354 307.188 39.0312C306.958 39.9271 306.646 40.9062 306.25 41.9688C305.854 43.0104 305.406 44.1354 304.906 45.3438C304.406 46.5312 303.875 47.7396 303.312 48.9688C302.771 50.1771 302.219 51.3958 301.656 52.625C301.115 53.8542 300.604 55.0312 300.125 56.1562C301.312 55.6771 302.552 55.0521 303.844 54.2812C305.135 53.5104 306.51 52.6458 307.969 51.6875C309.448 50.7292 311 49.6979 312.625 48.5938C314.271 47.4688 316.031 46.3229 317.906 45.1562C318.052 45.0729 318.25 45.0312 318.5 45.0312C319 45.0312 319.25 45.3125 319.25 45.875C319.25 46.1667 319.135 46.4896 318.906 46.8438C318.677 47.1771 318.344 47.4792 317.906 47.75C315.427 49.2917 313.188 50.7604 311.188 52.1562C309.188 53.5521 307.354 54.7917 305.688 55.875C304.042 56.9583 302.531 57.8125 301.156 58.4375C299.802 59.0833 298.542 59.4062 297.375 59.4062C296.667 59.4062 296.062 59.3125 295.562 59.125C295.062 58.9583 294.646 58.7292 294.312 58.4375C294 58.1458 293.76 57.8021 293.594 57.4062C293.448 56.9896 293.375 56.5625 293.375 56.125C293.375 55.6458 293.469 55.1771 293.656 54.7188C293.865 54.2396 294.146 53.7292 294.5 53.1875C295.146 51.7708 295.865 50.2917 296.656 48.75C297.448 47.1875 298.177 45.7083 298.844 44.3125C299.51 42.9167 300.073 41.6771 300.531 40.5938C300.99 39.5104 301.219 38.7292 301.219 38.25C301.219 37.9167 301.083 37.75 300.812 37.75ZM338.906 38.0938C338.906 38.9688 338.969 39.6146 339.094 40.0312C339.219 40.4479 339.354 40.8229 339.5 41.1562C339.667 41.4688 339.812 41.8229 339.938 42.2188C340.083 42.5938 340.156 43.1875 340.156 44C340.156 44.5625 340.094 45.1979 339.969 45.9062C339.865 46.5938 339.656 47.3125 339.344 48.0625C339.031 48.7917 338.594 49.5208 338.031 50.25C337.469 50.9583 336.75 51.5938 335.875 52.1562L348.125 45.1562C348.271 45.0729 348.417 45.0312 348.562 45.0312C348.792 45.0312 348.99 45.125 349.156 45.3125C349.344 45.4792 349.438 45.7083 349.438 46C349.438 46.2292 349.333 46.5104 349.125 46.8438C348.938 47.1771 348.604 47.4792 348.125 47.75C345.562 49.2083 343.354 50.4792 341.5 51.5625C339.667 52.625 338.094 53.5417 336.781 54.3125C335.49 55.0833 334.427 55.7292 333.594 56.25C332.76 56.75 332.062 57.1667 331.5 57.5C330.5 58.1042 329.552 58.5104 328.656 58.7188C327.76 58.9271 326.875 59.0312 326 59.0312C325.333 59.0312 324.844 58.9167 324.531 58.6875C324.24 58.4583 324.094 58.2083 324.094 57.9375C324.115 57.6458 324.281 57.3854 324.594 57.1562C324.906 56.9062 325.354 56.7812 325.938 56.7812C326.958 56.7812 327.948 56.4375 328.906 55.75C329.865 55.0417 330.708 54.0938 331.438 52.9062C332.188 51.6979 332.781 50.2917 333.219 48.6875C333.677 47.0833 333.906 45.3854 333.906 43.5938C333.906 43.3229 333.958 42.8021 334.062 42.0312C334.188 41.2604 334.375 40.4271 334.625 39.5312C334.875 38.6354 335.198 37.7604 335.594 36.9062C336.01 36.0521 336.5 35.4062 337.062 34.9688L317.906 47.75C317.698 47.8958 317.479 47.9688 317.25 47.9688C317.021 47.9688 316.833 47.8854 316.688 47.7188C316.542 47.5521 316.469 47.3438 316.469 47.0938C316.469 46.8021 316.583 46.4792 316.812 46.125C317.021 45.7708 317.385 45.4479 317.906 45.1562C321.26 42.8854 324.073 41 326.344 39.5C328.635 37.9792 330.5 36.75 331.938 35.8125L336.312 32.8438C336.958 32.5729 337.635 32.3646 338.344 32.2188C339.052 32.0521 339.708 31.9688 340.312 31.9688C340.979 31.9688 341.521 32.0833 341.938 32.3125C342.375 32.5208 342.594 32.8646 342.594 33.3438C342.594 33.5104 342.396 33.7812 342 34.1562C341.625 34.5312 341.208 34.9583 340.75 35.4375C340.292 35.8958 339.865 36.3646 339.469 36.8438C339.094 37.3229 338.906 37.7396 338.906 38.0938ZM363.719 14.1875C364.365 11.8958 365.073 10.2708 365.844 9.3125C366.635 8.33333 367.49 7.84375 368.406 7.84375C368.865 7.84375 369.219 7.92708 369.469 8.09375C369.74 8.23958 369.927 8.47917 370.031 8.8125C370.156 9.14583 370.229 9.57292 370.25 10.0938C370.271 10.5938 370.281 11.1979 370.281 11.9062C370.281 12.3438 370.104 13.1771 369.75 14.4062C369.396 15.6354 368.917 17.1042 368.312 18.8125C367.708 20.5 367.01 22.3542 366.219 24.375C365.427 26.375 364.594 28.3854 363.719 30.4062C363.198 31.5938 362.635 32.8646 362.031 34.2188C361.427 35.5729 360.812 36.9479 360.188 38.3438C359.562 39.7188 358.948 41.0833 358.344 42.4375C357.74 43.7917 357.177 45.0625 356.656 46.25C356.552 46.5 356.417 46.6875 356.25 46.8125C356.083 46.9375 355.927 47 355.781 47C355.448 47 355.281 46.8021 355.281 46.4062C355.281 46.3438 355.281 46.2917 355.281 46.25C355.302 46.1875 355.323 46.1146 355.344 46.0312L358.719 33.0312C359.177 31.2812 359.646 29.5 360.125 27.6875C360.604 25.875 361.062 24.1354 361.5 22.4688C361.938 20.7812 362.344 19.2292 362.719 17.8125C363.115 16.375 363.448 15.1667 363.719 14.1875ZM350.562 59.0938C349.833 59.0938 349.302 58.8229 348.969 58.2812C348.635 57.7604 348.469 57.1667 348.469 56.5C348.469 55.9375 348.562 55.3646 348.75 54.7812C348.938 54.1771 349.198 53.6354 349.531 53.1562C349.885 52.6771 350.302 52.2812 350.781 51.9688C351.281 51.6562 351.833 51.5 352.438 51.5C353.062 51.5 353.594 51.5833 354.031 51.75C354.469 51.9167 354.823 52.1354 355.094 52.4062C355.365 52.6771 355.552 52.9896 355.656 53.3438C355.781 53.6979 355.844 54.0625 355.844 54.4375C355.844 55.0833 355.677 55.6875 355.344 56.25C355.031 56.8125 354.615 57.3125 354.094 57.75C353.594 58.1667 353.031 58.4896 352.406 58.7188C351.781 58.9688 351.167 59.0938 350.562 59.0938ZM386.531 14.1875C387.177 11.8958 387.885 10.2708 388.656 9.3125C389.448 8.33333 390.302 7.84375 391.219 7.84375C391.677 7.84375 392.031 7.92708 392.281 8.09375C392.552 8.23958 392.74 8.47917 392.844 8.8125C392.969 9.14583 393.042 9.57292 393.062 10.0938C393.083 10.5938 393.094 11.1979 393.094 11.9062C393.094 12.3438 392.917 13.1771 392.562 14.4062C392.208 15.6354 391.729 17.1042 391.125 18.8125C390.521 20.5 389.823 22.3542 389.031 24.375C388.24 26.375 387.406 28.3854 386.531 30.4062C386.01 31.5938 385.448 32.8646 384.844 34.2188C384.24 35.5729 383.625 36.9479 383 38.3438C382.375 39.7188 381.76 41.0833 381.156 42.4375C380.552 43.7917 379.99 45.0625 379.469 46.25C379.365 46.5 379.229 46.6875 379.062 46.8125C378.896 46.9375 378.74 47 378.594 47C378.26 47 378.094 46.8021 378.094 46.4062C378.094 46.3438 378.094 46.2917 378.094 46.25C378.115 46.1875 378.135 46.1146 378.156 46.0312L381.531 33.0312C381.99 31.2812 382.458 29.5 382.938 27.6875C383.417 25.875 383.875 24.1354 384.312 22.4688C384.75 20.7812 385.156 19.2292 385.531 17.8125C385.927 16.375 386.26 15.1667 386.531 14.1875ZM373.375 59.0938C372.646 59.0938 372.115 58.8229 371.781 58.2812C371.448 57.7604 371.281 57.1667 371.281 56.5C371.281 55.9375 371.375 55.3646 371.562 54.7812C371.75 54.1771 372.01 53.6354 372.344 53.1562C372.698 52.6771 373.115 52.2812 373.594 51.9688C374.094 51.6562 374.646 51.5 375.25 51.5C375.875 51.5 376.406 51.5833 376.844 51.75C377.281 51.9167 377.635 52.1354 377.906 52.4062C378.177 52.6771 378.365 52.9896 378.469 53.3438C378.594 53.6979 378.656 54.0625 378.656 54.4375C378.656 55.0833 378.49 55.6875 378.156 56.25C377.844 56.8125 377.427 57.3125 376.906 57.75C376.406 58.1667 375.844 58.4896 375.219 58.7188C374.594 58.9688 373.979 59.0938 373.375 59.0938Z" fill="white"/>
</svg>
